%
M48
M72
T01C0.0236
T02C0.0276
T03C0.0315
T04C0.0400
T05C0.1260
%
T01
X15658Y1947
X3418Y14367
X6898Y15507
X8998Y15987
X9238Y12687
X9238Y11607
X6778Y12087
X6598Y8307
X3358Y7167
X5878Y5007
X6178Y2547
X5338Y2127
X8518Y5187
X10498Y4347
X10498Y6387
X12058Y6567
X12898Y8547
X14518Y8547
X13858Y11847
X13738Y16287
T02
X4998Y15867
X6698Y12847
X6598Y9967
X7298Y9967
X7598Y7967
X6998Y7967
T03
X15778Y8101
X15778Y7313
T04
X5952Y17137
X6952Y17037
X7952Y17137
X8952Y17037
X9952Y17137
X10952Y17037
X11952Y17137
X12952Y17037
X3158Y12627
X3158Y11627
X3158Y10627
X3158Y9627
X9718Y5417
X9718Y4277
X11278Y4347
X11278Y5347
X12278Y5247
X13278Y5347
X13278Y4347
X12278Y4247
T05
X3815Y16623
X15154Y16623
X15154Y5284
X3815Y5284
M30
