G75*
G70*
%OFA0B0*%
%FSLAX24Y24*%
%IPPOS*%
%LPD*%
%AMOC8*
5,1,8,0,0,1.08239X$1,22.5*
%
%ADD10C,0.0010*%
%ADD11R,0.0394X0.0787*%
%ADD12R,0.0709X0.0394*%
%ADD13R,0.0630X0.0709*%
%ADD14R,0.0551X0.0472*%
%ADD15R,0.0500X0.0220*%
%ADD16R,0.0220X0.0500*%
%ADD17R,0.0709X0.0630*%
%ADD18R,0.1260X0.0472*%
D10*
X002398Y002257D02*
X002398Y016647D01*
X002398Y016637D02*
X002397Y016710D01*
X002400Y016782D01*
X002406Y016854D01*
X002416Y016926D01*
X002430Y016997D01*
X002448Y017067D01*
X002470Y017136D01*
X002495Y017204D01*
X002524Y017270D01*
X002556Y017335D01*
X002592Y017398D01*
X002632Y017459D01*
X002674Y017517D01*
X002719Y017574D01*
X002768Y017628D01*
X002819Y017679D01*
X002873Y017727D01*
X002930Y017772D01*
X002988Y017815D01*
X003049Y017854D01*
X003112Y017889D01*
X003177Y017922D01*
X003244Y017950D01*
X003312Y017975D01*
X003381Y017997D01*
X003451Y018015D01*
X003522Y018028D01*
X003594Y018038D01*
X003666Y018045D01*
X003738Y018047D01*
X015158Y018047D01*
X015152Y018046D02*
X015225Y018047D01*
X015297Y018044D01*
X015369Y018038D01*
X015441Y018028D01*
X015512Y018014D01*
X015582Y017996D01*
X015651Y017974D01*
X015719Y017949D01*
X015785Y017920D01*
X015850Y017888D01*
X015913Y017852D01*
X015974Y017812D01*
X016032Y017770D01*
X016089Y017725D01*
X016143Y017676D01*
X016194Y017625D01*
X016242Y017571D01*
X016287Y017514D01*
X016330Y017456D01*
X016369Y017395D01*
X016404Y017332D01*
X016437Y017267D01*
X016465Y017200D01*
X016490Y017132D01*
X016512Y017063D01*
X016530Y016993D01*
X016543Y016922D01*
X016553Y016850D01*
X016560Y016778D01*
X016562Y016706D01*
X016568Y016697D02*
X016568Y002337D01*
X016569Y002264D01*
X016566Y002192D01*
X016560Y002120D01*
X016550Y002048D01*
X016536Y001977D01*
X016518Y001907D01*
X016496Y001838D01*
X016471Y001770D01*
X016442Y001704D01*
X016410Y001639D01*
X016374Y001576D01*
X016334Y001515D01*
X016292Y001457D01*
X016247Y001400D01*
X016198Y001346D01*
X016147Y001295D01*
X016093Y001247D01*
X016036Y001202D01*
X015978Y001159D01*
X015917Y001120D01*
X015854Y001085D01*
X015789Y001052D01*
X015722Y001024D01*
X015654Y000999D01*
X015585Y000977D01*
X015515Y000959D01*
X015444Y000946D01*
X015372Y000936D01*
X015300Y000929D01*
X015228Y000927D01*
X003808Y000927D01*
X003808Y000928D02*
X003735Y000926D01*
X003663Y000928D01*
X003592Y000934D01*
X003520Y000944D01*
X003449Y000958D01*
X003379Y000976D01*
X003310Y000997D01*
X003243Y001022D01*
X003176Y001050D01*
X003112Y001083D01*
X003049Y001118D01*
X002988Y001157D01*
X002930Y001199D01*
X002873Y001244D01*
X002819Y001292D01*
X002768Y001343D01*
X002720Y001397D01*
X002675Y001453D01*
X002632Y001511D01*
X002593Y001572D01*
X002557Y001634D01*
X002525Y001699D01*
X002496Y001765D01*
X002471Y001832D01*
X002449Y001901D01*
X002431Y001971D01*
X002417Y002042D01*
X002407Y002113D01*
X002401Y002185D01*
X002398Y002257D01*
D11*
X007859Y009985D03*
X008449Y009985D03*
X009040Y009985D03*
X009630Y009985D03*
X010221Y009985D03*
X010811Y009985D03*
X011402Y009985D03*
X011992Y009985D03*
X012583Y009985D03*
X013174Y009985D03*
X013764Y009985D03*
X014355Y009985D03*
X014945Y009985D03*
X014945Y015103D03*
X014355Y015103D03*
X013764Y015103D03*
X013174Y015103D03*
X012583Y015103D03*
X011992Y015103D03*
X011402Y015103D03*
X010811Y015103D03*
X010221Y015103D03*
X009630Y015103D03*
X009040Y015103D03*
X008449Y015103D03*
X007859Y015103D03*
D12*
X015634Y014611D03*
X015634Y014021D03*
X015634Y013430D03*
X015634Y012839D03*
X015634Y012249D03*
X015634Y011658D03*
X015634Y011068D03*
X015634Y010477D03*
D13*
X006376Y003919D03*
X005274Y003919D03*
D14*
X002995Y003029D03*
X002995Y001848D03*
D15*
X005582Y006343D03*
X005582Y006658D03*
X005582Y006973D03*
X005582Y007288D03*
X005582Y007603D03*
X005582Y007918D03*
X005582Y008233D03*
X005582Y008548D03*
X008962Y008548D03*
X008962Y008233D03*
X008962Y007918D03*
X008962Y007603D03*
X008962Y007288D03*
X008962Y006973D03*
X008962Y006658D03*
X008962Y006343D03*
D16*
X008374Y005756D03*
X008059Y005756D03*
X007744Y005756D03*
X007429Y005756D03*
X007115Y005756D03*
X006800Y005756D03*
X006485Y005756D03*
X006170Y005756D03*
X006170Y009136D03*
X006485Y009136D03*
X006800Y009136D03*
X007115Y009136D03*
X007429Y009136D03*
X007744Y009136D03*
X008059Y009136D03*
X008374Y009136D03*
D17*
X010453Y008516D03*
X010453Y007414D03*
X012078Y007436D03*
X012078Y008538D03*
X013707Y008532D03*
X013707Y007430D03*
D18*
X012578Y002933D03*
X011181Y002932D03*
X011181Y001357D03*
X012578Y001358D03*
X015255Y001358D03*
X015255Y002933D03*
X008504Y002932D03*
X007107Y002934D03*
X007107Y001360D03*
X008504Y001357D03*
X004429Y001360D03*
X004429Y002934D03*
M02*
