G75*
G70*
%OFA0B0*%
%FSLAX24Y24*%
%IPPOS*%
%LPD*%
%AMOC8*
5,1,8,0,0,1.08239X$1,22.5*
%
%ADD10C,0.0090*%
%ADD11C,0.0050*%
%ADD12C,0.0170*%
%ADD13C,0.0010*%
%ADD14C,0.0120*%
%ADD15C,0.0030*%
%ADD16C,0.0160*%
%ADD17C,0.0100*%
%ADD18C,0.0070*%
D10*
X004000Y009412D02*
X004000Y009822D01*
X003863Y009822D02*
X004137Y009822D01*
X004323Y009822D02*
X004597Y009412D01*
X004323Y009412D02*
X004597Y009822D01*
X004657Y010462D02*
X004383Y010872D01*
X004197Y010804D02*
X004197Y010667D01*
X004128Y010599D01*
X003923Y010599D01*
X004060Y010599D02*
X004197Y010462D01*
X004383Y010462D02*
X004657Y010872D01*
X004197Y010804D02*
X004128Y010872D01*
X003923Y010872D01*
X003923Y010462D01*
X003853Y011432D02*
X003853Y011842D01*
X004058Y011842D01*
X004127Y011774D01*
X004127Y011637D01*
X004058Y011569D01*
X003853Y011569D01*
X003990Y011569D02*
X004127Y011432D01*
X004313Y011432D02*
X004587Y011432D01*
X004774Y011500D02*
X004842Y011432D01*
X004979Y011432D01*
X005047Y011500D01*
X005047Y011569D01*
X004979Y011637D01*
X004842Y011637D01*
X004774Y011706D01*
X004774Y011774D01*
X004842Y011842D01*
X004979Y011842D01*
X005047Y011774D01*
X004587Y011842D02*
X004313Y011842D01*
X004313Y011432D01*
X004313Y011637D02*
X004450Y011637D01*
X004323Y012412D02*
X004323Y012822D01*
X004597Y012412D01*
X004597Y012822D01*
X004784Y012822D02*
X004989Y012822D01*
X005057Y012754D01*
X005057Y012480D01*
X004989Y012412D01*
X004784Y012412D01*
X004784Y012822D01*
X004137Y012754D02*
X004068Y012822D01*
X003931Y012822D01*
X003863Y012754D01*
X003863Y012480D01*
X003931Y012412D01*
X004068Y012412D01*
X004137Y012480D01*
X004137Y012617D01*
X004000Y012617D01*
D11*
X003634Y009062D02*
X003634Y008872D01*
X003761Y008872D01*
X003540Y008872D02*
X003540Y008999D01*
X003477Y009062D01*
X003413Y008999D01*
X003413Y008872D01*
X003329Y008872D02*
X003266Y008872D01*
X003298Y008872D02*
X003298Y009062D01*
X003329Y009062D02*
X003266Y009062D01*
X003172Y009030D02*
X003172Y008967D01*
X003140Y008935D01*
X003045Y008935D01*
X003045Y008872D02*
X003045Y009062D01*
X003140Y009062D01*
X003172Y009030D01*
X003108Y008935D02*
X003172Y008872D01*
X002951Y008872D02*
X002824Y008872D01*
X002824Y009062D01*
X002951Y009062D01*
X002887Y008967D02*
X002824Y008967D01*
X002730Y008935D02*
X002730Y008904D01*
X002698Y008872D01*
X002635Y008872D01*
X002603Y008904D01*
X002635Y008967D02*
X002698Y008967D01*
X002730Y008935D01*
X002730Y009030D02*
X002698Y009062D01*
X002635Y009062D01*
X002603Y009030D01*
X002603Y008999D01*
X002635Y008967D01*
X003413Y008967D02*
X003540Y008967D01*
X006071Y006462D02*
X006161Y006372D01*
X006161Y006192D01*
X006161Y006327D02*
X005981Y006327D01*
X005981Y006372D02*
X006071Y006462D01*
X005981Y006372D02*
X005981Y006192D01*
X006276Y006462D02*
X006456Y006462D01*
X006366Y006462D02*
X006366Y006192D01*
X006570Y006192D02*
X006570Y006462D01*
X006661Y006372D01*
X006751Y006462D01*
X006751Y006192D01*
X006865Y006237D02*
X006865Y006327D01*
X006910Y006372D01*
X007000Y006372D01*
X007045Y006327D01*
X007045Y006282D01*
X006865Y006282D01*
X006865Y006237D02*
X006910Y006192D01*
X007000Y006192D01*
X007160Y006237D02*
X007160Y006327D01*
X007205Y006372D01*
X007340Y006372D01*
X007340Y006147D01*
X007295Y006102D01*
X007250Y006102D01*
X007205Y006192D02*
X007340Y006192D01*
X007454Y006237D02*
X007499Y006282D01*
X007635Y006282D01*
X007635Y006327D02*
X007635Y006192D01*
X007499Y006192D01*
X007454Y006237D01*
X007499Y006372D02*
X007590Y006372D01*
X007635Y006327D01*
X007749Y006237D02*
X007794Y006192D01*
X007884Y006192D01*
X007929Y006237D01*
X007929Y006282D01*
X007884Y006327D01*
X007839Y006327D01*
X007884Y006327D02*
X007929Y006372D01*
X007929Y006417D01*
X007884Y006462D01*
X007794Y006462D01*
X007749Y006417D01*
X008044Y006417D02*
X008089Y006462D01*
X008179Y006462D01*
X008224Y006417D01*
X008224Y006372D01*
X008044Y006192D01*
X008224Y006192D01*
X008338Y006237D02*
X008338Y006282D01*
X008383Y006327D01*
X008473Y006327D01*
X008518Y006282D01*
X008518Y006237D01*
X008473Y006192D01*
X008383Y006192D01*
X008338Y006237D01*
X008383Y006327D02*
X008338Y006372D01*
X008338Y006417D01*
X008383Y006462D01*
X008473Y006462D01*
X008518Y006417D01*
X008518Y006372D01*
X008473Y006327D01*
X008935Y005661D02*
X009061Y005534D01*
X009093Y005566D01*
X009093Y005629D01*
X009061Y005661D01*
X008935Y005661D01*
X008903Y005629D01*
X008903Y005566D01*
X008935Y005534D01*
X009061Y005534D01*
X009093Y005440D02*
X009093Y005313D01*
X009093Y005376D02*
X008903Y005376D01*
X008966Y005313D01*
X008935Y005219D02*
X008903Y005187D01*
X008903Y005092D01*
X009093Y005092D01*
X009093Y005187D01*
X009061Y005219D01*
X008935Y005219D01*
X008935Y004540D02*
X008903Y004508D01*
X008903Y004445D01*
X008935Y004413D01*
X008966Y004413D01*
X008998Y004445D01*
X008998Y004540D01*
X009061Y004540D02*
X008935Y004540D01*
X009061Y004540D02*
X009093Y004508D01*
X009093Y004445D01*
X009061Y004413D01*
X009061Y004319D02*
X008935Y004319D01*
X008903Y004287D01*
X008903Y004192D01*
X009093Y004192D01*
X009093Y004287D01*
X009061Y004319D01*
X010883Y003722D02*
X010946Y003659D01*
X011010Y003722D01*
X011010Y003532D01*
X011104Y003532D02*
X011167Y003532D01*
X011136Y003532D02*
X011136Y003722D01*
X011167Y003722D02*
X011104Y003722D01*
X011251Y003690D02*
X011251Y003659D01*
X011283Y003627D01*
X011346Y003627D01*
X011378Y003595D01*
X011378Y003564D01*
X011346Y003532D01*
X011283Y003532D01*
X011251Y003564D01*
X011251Y003690D02*
X011283Y003722D01*
X011346Y003722D01*
X011378Y003690D01*
X011472Y003690D02*
X011504Y003722D01*
X011567Y003722D01*
X011599Y003690D01*
X011599Y003564D01*
X011567Y003532D01*
X011504Y003532D01*
X011472Y003564D01*
X011472Y003690D01*
X011963Y003690D02*
X011963Y003659D01*
X011995Y003627D01*
X012058Y003627D01*
X012090Y003595D01*
X012090Y003564D01*
X012058Y003532D01*
X011995Y003532D01*
X011963Y003564D01*
X011963Y003690D02*
X011995Y003722D01*
X012058Y003722D01*
X012090Y003690D01*
X012184Y003690D02*
X012184Y003564D01*
X012216Y003532D01*
X012279Y003532D01*
X012311Y003564D01*
X012405Y003595D02*
X012532Y003722D01*
X012405Y003722D02*
X012405Y003532D01*
X012437Y003627D02*
X012532Y003532D01*
X012311Y003690D02*
X012279Y003722D01*
X012216Y003722D01*
X012184Y003690D01*
X012983Y003722D02*
X012983Y003532D01*
X012983Y003595D02*
X013078Y003595D01*
X013110Y003627D01*
X013110Y003690D01*
X013078Y003722D01*
X012983Y003722D01*
X013046Y003595D02*
X013110Y003532D01*
X013204Y003564D02*
X013236Y003532D01*
X013299Y003532D01*
X013331Y003564D01*
X013331Y003595D01*
X013299Y003627D01*
X013236Y003627D01*
X013204Y003659D01*
X013204Y003690D01*
X013236Y003722D01*
X013299Y003722D01*
X013331Y003690D01*
X013425Y003722D02*
X013552Y003722D01*
X013488Y003722D02*
X013488Y003532D01*
X013422Y005932D02*
X013517Y005932D01*
X013549Y005964D01*
X013549Y006090D01*
X013517Y006122D01*
X013422Y006122D01*
X013422Y005932D01*
X013328Y005932D02*
X013328Y006122D01*
X013201Y006122D02*
X013201Y005932D01*
X013107Y005964D02*
X013075Y005932D01*
X013012Y005932D01*
X012980Y005964D01*
X012980Y006090D01*
X013012Y006122D01*
X013075Y006122D01*
X013107Y006090D01*
X013107Y006027D02*
X013043Y006027D01*
X013107Y006027D02*
X013107Y005964D01*
X013201Y006122D02*
X013328Y005932D01*
X012629Y005932D02*
X012566Y005932D01*
X012598Y005932D02*
X012598Y006122D01*
X012629Y006122D02*
X012566Y006122D01*
X012472Y006090D02*
X012440Y006122D01*
X012377Y006122D01*
X012345Y006090D01*
X012345Y006059D01*
X012377Y006027D01*
X012440Y006027D01*
X012472Y005995D01*
X012472Y005964D01*
X012440Y005932D01*
X012377Y005932D01*
X012345Y005964D01*
X012251Y005964D02*
X012251Y006090D01*
X012219Y006122D01*
X012156Y006122D01*
X012124Y006090D01*
X012124Y005964D01*
X012156Y005932D01*
X012219Y005932D01*
X012251Y005964D01*
X012030Y005932D02*
X012030Y006122D01*
X011966Y006059D01*
X011903Y006122D01*
X011903Y005932D01*
X011878Y006772D02*
X011815Y006772D01*
X011783Y006804D01*
X011910Y006930D01*
X011910Y006804D01*
X011878Y006772D01*
X011783Y006804D02*
X011783Y006930D01*
X011815Y006962D01*
X011878Y006962D01*
X011910Y006930D01*
X012004Y006804D02*
X012036Y006804D01*
X012036Y006772D01*
X012004Y006772D01*
X012004Y006804D01*
X012114Y006772D02*
X012241Y006772D01*
X012178Y006772D02*
X012178Y006962D01*
X012114Y006899D01*
X012335Y006899D02*
X012335Y006804D01*
X012367Y006772D01*
X012462Y006772D01*
X012462Y006899D01*
X013463Y006930D02*
X013463Y006804D01*
X013590Y006930D01*
X013590Y006804D01*
X013558Y006772D01*
X013495Y006772D01*
X013463Y006804D01*
X013463Y006930D02*
X013495Y006962D01*
X013558Y006962D01*
X013590Y006930D01*
X013684Y006804D02*
X013716Y006804D01*
X013716Y006772D01*
X013684Y006772D01*
X013684Y006804D01*
X013794Y006772D02*
X013921Y006772D01*
X013858Y006772D02*
X013858Y006962D01*
X013794Y006899D01*
X014015Y006899D02*
X014015Y006804D01*
X014047Y006772D01*
X014142Y006772D01*
X014142Y006899D01*
X010792Y006962D02*
X010665Y006835D01*
X010697Y006867D02*
X010792Y006772D01*
X010665Y006772D02*
X010665Y006962D01*
X010571Y006930D02*
X010444Y006804D01*
X010476Y006772D01*
X010539Y006772D01*
X010571Y006804D01*
X010571Y006930D01*
X010539Y006962D01*
X010476Y006962D01*
X010444Y006930D01*
X010444Y006804D01*
X010350Y006772D02*
X010223Y006772D01*
X010286Y006772D02*
X010286Y006962D01*
X010223Y006899D01*
X007205Y006192D02*
X007160Y006237D01*
X005291Y004562D02*
X005164Y004435D01*
X005196Y004467D02*
X005291Y004372D01*
X005164Y004372D02*
X005164Y004562D01*
X005006Y004562D02*
X005006Y004372D01*
X004943Y004372D02*
X005070Y004372D01*
X004943Y004499D02*
X005006Y004562D01*
X003191Y003542D02*
X003127Y003510D01*
X003064Y003447D01*
X003159Y003447D01*
X003191Y003415D01*
X003191Y003384D01*
X003159Y003352D01*
X003096Y003352D01*
X003064Y003384D01*
X003064Y003447D01*
X002970Y003384D02*
X002970Y003510D01*
X002938Y003542D01*
X002843Y003542D01*
X002843Y003352D01*
X002938Y003352D01*
X002970Y003384D01*
X010883Y003532D02*
X010883Y003722D01*
X010841Y012182D02*
X010706Y012182D01*
X010706Y012452D01*
X010841Y012452D01*
X010886Y012407D01*
X010886Y012362D01*
X010841Y012317D01*
X010706Y012317D01*
X010841Y012317D02*
X010886Y012272D01*
X010886Y012227D01*
X010841Y012182D01*
X011000Y012182D02*
X011091Y012182D01*
X011045Y012182D02*
X011045Y012452D01*
X011000Y012452D01*
X011197Y012362D02*
X011197Y012227D01*
X011242Y012182D01*
X011377Y012182D01*
X011377Y012362D01*
X011492Y012317D02*
X011492Y012227D01*
X011537Y012182D01*
X011627Y012182D01*
X011672Y012272D02*
X011492Y012272D01*
X011492Y012317D02*
X011537Y012362D01*
X011627Y012362D01*
X011672Y012317D01*
X011672Y012272D01*
X011786Y012362D02*
X011876Y012362D01*
X011831Y012407D02*
X011831Y012227D01*
X011876Y012182D01*
X011983Y012227D02*
X012028Y012182D01*
X012118Y012182D01*
X012163Y012227D01*
X012163Y012317D01*
X012118Y012362D01*
X012028Y012362D01*
X011983Y012317D01*
X011983Y012227D01*
X012277Y012227D02*
X012322Y012182D01*
X012412Y012182D01*
X012457Y012227D01*
X012457Y012317D01*
X012412Y012362D01*
X012322Y012362D01*
X012277Y012317D01*
X012277Y012227D01*
X012572Y012362D02*
X012662Y012362D01*
X012617Y012407D02*
X012617Y012227D01*
X012662Y012182D01*
X012768Y012182D02*
X012768Y012452D01*
X012813Y012362D02*
X012903Y012362D01*
X012948Y012317D01*
X012948Y012182D01*
X012768Y012317D02*
X012813Y012362D01*
X010297Y012272D02*
X010297Y012227D01*
X010252Y012182D01*
X010162Y012182D01*
X010116Y012227D01*
X010116Y012317D01*
X010252Y012317D01*
X010297Y012272D01*
X010207Y012407D02*
X010116Y012317D01*
X010207Y012407D02*
X010297Y012452D01*
X010002Y012407D02*
X009822Y012227D01*
X009867Y012182D01*
X009957Y012182D01*
X010002Y012227D01*
X010002Y012407D01*
X009957Y012452D01*
X009867Y012452D01*
X009822Y012407D01*
X009822Y012227D01*
X009707Y012227D02*
X009662Y012182D01*
X009572Y012182D01*
X009527Y012227D01*
X009527Y012407D01*
X009572Y012452D01*
X009662Y012452D01*
X009707Y012407D01*
X009413Y012452D02*
X009413Y012182D01*
X009413Y012317D02*
X009233Y012317D01*
X009233Y012182D02*
X009233Y012452D01*
X009099Y016072D02*
X009131Y016104D01*
X009099Y016072D02*
X009036Y016072D01*
X009004Y016104D01*
X009004Y016230D01*
X009036Y016262D01*
X009099Y016262D01*
X009131Y016230D01*
X008910Y016230D02*
X008910Y016104D01*
X008878Y016072D01*
X008783Y016072D01*
X008783Y016262D01*
X008878Y016262D01*
X008910Y016230D01*
X008212Y016199D02*
X008212Y016072D01*
X008212Y016167D02*
X008085Y016167D01*
X008085Y016199D02*
X008148Y016262D01*
X008212Y016199D01*
X008085Y016199D02*
X008085Y016072D01*
X007991Y016104D02*
X007991Y016230D01*
X007959Y016262D01*
X007864Y016262D01*
X007864Y016072D01*
X007959Y016072D01*
X007991Y016104D01*
X007770Y016104D02*
X007738Y016072D01*
X007675Y016072D01*
X007643Y016104D01*
X007675Y016167D02*
X007738Y016167D01*
X007770Y016135D01*
X007770Y016104D01*
X007675Y016167D02*
X007643Y016199D01*
X007643Y016230D01*
X007675Y016262D01*
X007738Y016262D01*
X007770Y016230D01*
X007252Y016072D02*
X007125Y016072D01*
X007125Y016262D01*
X007031Y016230D02*
X006999Y016262D01*
X006936Y016262D01*
X006904Y016230D01*
X006904Y016104D01*
X006936Y016072D01*
X006999Y016072D01*
X007031Y016104D01*
X006810Y016104D02*
X006778Y016072D01*
X006715Y016072D01*
X006683Y016104D01*
X006715Y016167D02*
X006778Y016167D01*
X006810Y016135D01*
X006810Y016104D01*
X006715Y016167D02*
X006683Y016199D01*
X006683Y016230D01*
X006715Y016262D01*
X006778Y016262D01*
X006810Y016230D01*
X006131Y016230D02*
X006099Y016262D01*
X006036Y016262D01*
X006004Y016230D01*
X006004Y016104D01*
X006036Y016072D01*
X006099Y016072D01*
X006131Y016104D01*
X005910Y016072D02*
X005910Y016262D01*
X005783Y016262D02*
X005783Y016072D01*
X005910Y016072D02*
X005783Y016262D01*
X005373Y016404D02*
X005373Y016467D01*
X005341Y016499D01*
X005215Y016499D01*
X005183Y016467D01*
X005183Y016404D01*
X005215Y016372D01*
X005341Y016372D01*
X005373Y016404D01*
X005373Y016593D02*
X005183Y016593D01*
X005373Y016593D02*
X005373Y016720D01*
X005373Y016814D02*
X005373Y016941D01*
X005373Y017035D02*
X005373Y017130D01*
X005341Y017162D01*
X005215Y017162D01*
X005183Y017130D01*
X005183Y017035D01*
X005373Y017035D01*
X005278Y016877D02*
X005278Y016814D01*
X005183Y016814D02*
X005373Y016814D01*
X005183Y016814D02*
X005183Y016941D01*
X009863Y016262D02*
X009863Y016072D01*
X009958Y016072D01*
X009990Y016104D01*
X009990Y016230D01*
X009958Y016262D01*
X009863Y016262D01*
X010084Y016167D02*
X010211Y016167D01*
X010179Y016072D02*
X010179Y016262D01*
X010084Y016167D01*
X010643Y016072D02*
X010643Y016262D01*
X010770Y016072D01*
X010770Y016262D01*
X010864Y016072D02*
X010991Y016262D01*
X011085Y016230D02*
X011085Y016104D01*
X011117Y016072D01*
X011180Y016072D01*
X011212Y016104D01*
X011212Y016230D02*
X011180Y016262D01*
X011117Y016262D01*
X011085Y016230D01*
X011723Y016230D02*
X011723Y016104D01*
X011755Y016072D01*
X011818Y016072D01*
X011850Y016104D01*
X011850Y016167D01*
X011786Y016167D01*
X011723Y016230D02*
X011755Y016262D01*
X011818Y016262D01*
X011850Y016230D01*
X011944Y016262D02*
X012071Y016072D01*
X012071Y016262D01*
X012165Y016262D02*
X012260Y016262D01*
X012292Y016230D01*
X012292Y016104D01*
X012260Y016072D01*
X012165Y016072D01*
X012165Y016262D01*
X011944Y016262D02*
X011944Y016072D01*
X012683Y016104D02*
X012715Y016072D01*
X012778Y016072D01*
X012810Y016104D01*
X012810Y016135D01*
X012778Y016167D01*
X012746Y016167D01*
X012778Y016167D02*
X012810Y016199D01*
X012810Y016230D01*
X012778Y016262D01*
X012715Y016262D01*
X012683Y016230D01*
X012904Y016104D02*
X012936Y016104D01*
X012936Y016072D01*
X012904Y016072D01*
X012904Y016104D01*
X013014Y016104D02*
X013046Y016072D01*
X013110Y016072D01*
X013141Y016104D01*
X013141Y016135D01*
X013110Y016167D01*
X013078Y016167D01*
X013110Y016167D02*
X013141Y016199D01*
X013141Y016230D01*
X013110Y016262D01*
X013046Y016262D01*
X013014Y016230D01*
X013235Y016262D02*
X013235Y016135D01*
X013299Y016072D01*
X013362Y016135D01*
X013362Y016262D01*
D12*
X015523Y008687D02*
X016077Y008687D01*
X015800Y006844D02*
X015800Y006290D01*
X015523Y006567D02*
X016077Y006567D01*
D13*
X002398Y002257D02*
X002398Y016647D01*
X002398Y016637D02*
X002397Y016710D01*
X002400Y016782D01*
X002406Y016854D01*
X002416Y016926D01*
X002430Y016997D01*
X002448Y017067D01*
X002470Y017136D01*
X002495Y017204D01*
X002524Y017270D01*
X002556Y017335D01*
X002592Y017398D01*
X002632Y017459D01*
X002674Y017517D01*
X002719Y017574D01*
X002768Y017628D01*
X002819Y017679D01*
X002873Y017727D01*
X002930Y017772D01*
X002988Y017815D01*
X003049Y017854D01*
X003112Y017889D01*
X003177Y017922D01*
X003244Y017950D01*
X003312Y017975D01*
X003381Y017997D01*
X003451Y018015D01*
X003522Y018028D01*
X003594Y018038D01*
X003666Y018045D01*
X003738Y018047D01*
X015158Y018047D01*
X015152Y018046D02*
X015225Y018047D01*
X015297Y018044D01*
X015369Y018038D01*
X015441Y018028D01*
X015512Y018014D01*
X015582Y017996D01*
X015651Y017974D01*
X015719Y017949D01*
X015785Y017920D01*
X015850Y017888D01*
X015913Y017852D01*
X015974Y017812D01*
X016032Y017770D01*
X016089Y017725D01*
X016143Y017676D01*
X016194Y017625D01*
X016242Y017571D01*
X016287Y017514D01*
X016330Y017456D01*
X016369Y017395D01*
X016404Y017332D01*
X016437Y017267D01*
X016465Y017200D01*
X016490Y017132D01*
X016512Y017063D01*
X016530Y016993D01*
X016543Y016922D01*
X016553Y016850D01*
X016560Y016778D01*
X016562Y016706D01*
X016568Y016697D02*
X016568Y002337D01*
X016569Y002264D01*
X016566Y002192D01*
X016560Y002120D01*
X016550Y002048D01*
X016536Y001977D01*
X016518Y001907D01*
X016496Y001838D01*
X016471Y001770D01*
X016442Y001704D01*
X016410Y001639D01*
X016374Y001576D01*
X016334Y001515D01*
X016292Y001457D01*
X016247Y001400D01*
X016198Y001346D01*
X016147Y001295D01*
X016093Y001247D01*
X016036Y001202D01*
X015978Y001159D01*
X015917Y001120D01*
X015854Y001085D01*
X015789Y001052D01*
X015722Y001024D01*
X015654Y000999D01*
X015585Y000977D01*
X015515Y000959D01*
X015444Y000946D01*
X015372Y000936D01*
X015300Y000929D01*
X015228Y000927D01*
X003808Y000927D01*
X003808Y000928D02*
X003735Y000926D01*
X003663Y000928D01*
X003592Y000934D01*
X003520Y000944D01*
X003449Y000958D01*
X003379Y000976D01*
X003310Y000997D01*
X003243Y001022D01*
X003176Y001050D01*
X003112Y001083D01*
X003049Y001118D01*
X002988Y001157D01*
X002930Y001199D01*
X002873Y001244D01*
X002819Y001292D01*
X002768Y001343D01*
X002720Y001397D01*
X002675Y001453D01*
X002632Y001511D01*
X002593Y001572D01*
X002557Y001634D01*
X002525Y001699D01*
X002496Y001765D01*
X002471Y001832D01*
X002449Y001901D01*
X002431Y001971D01*
X002417Y002042D01*
X002407Y002113D01*
X002401Y002185D01*
X002398Y002257D01*
D14*
X006044Y008487D02*
X006046Y008510D01*
X006052Y008532D01*
X006061Y008552D01*
X006074Y008571D01*
X006089Y008588D01*
X006108Y008601D01*
X006128Y008611D01*
X006150Y008618D01*
X006172Y008621D01*
X006195Y008620D01*
X006217Y008615D01*
X006238Y008607D01*
X006258Y008595D01*
X006275Y008580D01*
X006289Y008562D01*
X006300Y008542D01*
X006308Y008521D01*
X006312Y008498D01*
X006312Y008476D01*
X006308Y008453D01*
X006300Y008432D01*
X006289Y008412D01*
X006275Y008394D01*
X006258Y008379D01*
X006238Y008367D01*
X006217Y008359D01*
X006195Y008354D01*
X006172Y008353D01*
X006150Y008356D01*
X006128Y008363D01*
X006108Y008373D01*
X006089Y008386D01*
X006074Y008403D01*
X006061Y008422D01*
X006052Y008442D01*
X006046Y008464D01*
X006044Y008487D01*
D15*
X005878Y008607D02*
X006058Y008787D01*
D16*
X004916Y002127D02*
X004918Y002184D01*
X004924Y002242D01*
X004934Y002298D01*
X004947Y002354D01*
X004965Y002409D01*
X004986Y002462D01*
X005010Y002514D01*
X005039Y002564D01*
X005070Y002613D01*
X005105Y002658D01*
X005143Y002702D01*
X005183Y002742D01*
X005227Y002780D01*
X005272Y002815D01*
X005321Y002846D01*
X005371Y002875D01*
X005423Y002899D01*
X005476Y002920D01*
X005531Y002938D01*
X005587Y002951D01*
X005643Y002961D01*
X005701Y002967D01*
X005758Y002969D01*
X005815Y002967D01*
X005873Y002961D01*
X005929Y002951D01*
X005985Y002938D01*
X006040Y002920D01*
X006093Y002899D01*
X006145Y002875D01*
X006195Y002846D01*
X006244Y002815D01*
X006289Y002780D01*
X006333Y002742D01*
X006373Y002702D01*
X006411Y002658D01*
X006446Y002613D01*
X006477Y002564D01*
X006506Y002514D01*
X006530Y002462D01*
X006551Y002409D01*
X006569Y002354D01*
X006582Y002298D01*
X006592Y002242D01*
X006598Y002184D01*
X006600Y002127D01*
X006598Y002070D01*
X006592Y002012D01*
X006582Y001956D01*
X006569Y001900D01*
X006551Y001845D01*
X006530Y001792D01*
X006506Y001740D01*
X006477Y001690D01*
X006446Y001641D01*
X006411Y001596D01*
X006373Y001552D01*
X006333Y001512D01*
X006289Y001474D01*
X006244Y001439D01*
X006195Y001408D01*
X006145Y001379D01*
X006093Y001355D01*
X006040Y001334D01*
X005985Y001316D01*
X005929Y001303D01*
X005873Y001293D01*
X005815Y001287D01*
X005758Y001285D01*
X005701Y001287D01*
X005643Y001293D01*
X005587Y001303D01*
X005531Y001316D01*
X005476Y001334D01*
X005423Y001355D01*
X005371Y001379D01*
X005321Y001408D01*
X005272Y001439D01*
X005227Y001474D01*
X005183Y001512D01*
X005143Y001552D01*
X005105Y001596D01*
X005070Y001641D01*
X005039Y001690D01*
X005010Y001740D01*
X004986Y001792D01*
X004965Y001845D01*
X004947Y001900D01*
X004934Y001956D01*
X004924Y002012D01*
X004918Y002070D01*
X004916Y002127D01*
X008996Y002127D02*
X008998Y002184D01*
X009004Y002242D01*
X009014Y002298D01*
X009027Y002354D01*
X009045Y002409D01*
X009066Y002462D01*
X009090Y002514D01*
X009119Y002564D01*
X009150Y002613D01*
X009185Y002658D01*
X009223Y002702D01*
X009263Y002742D01*
X009307Y002780D01*
X009352Y002815D01*
X009401Y002846D01*
X009451Y002875D01*
X009503Y002899D01*
X009556Y002920D01*
X009611Y002938D01*
X009667Y002951D01*
X009723Y002961D01*
X009781Y002967D01*
X009838Y002969D01*
X009895Y002967D01*
X009953Y002961D01*
X010009Y002951D01*
X010065Y002938D01*
X010120Y002920D01*
X010173Y002899D01*
X010225Y002875D01*
X010275Y002846D01*
X010324Y002815D01*
X010369Y002780D01*
X010413Y002742D01*
X010453Y002702D01*
X010491Y002658D01*
X010526Y002613D01*
X010557Y002564D01*
X010586Y002514D01*
X010610Y002462D01*
X010631Y002409D01*
X010649Y002354D01*
X010662Y002298D01*
X010672Y002242D01*
X010678Y002184D01*
X010680Y002127D01*
X010678Y002070D01*
X010672Y002012D01*
X010662Y001956D01*
X010649Y001900D01*
X010631Y001845D01*
X010610Y001792D01*
X010586Y001740D01*
X010557Y001690D01*
X010526Y001641D01*
X010491Y001596D01*
X010453Y001552D01*
X010413Y001512D01*
X010369Y001474D01*
X010324Y001439D01*
X010275Y001408D01*
X010225Y001379D01*
X010173Y001355D01*
X010120Y001334D01*
X010065Y001316D01*
X010009Y001303D01*
X009953Y001293D01*
X009895Y001287D01*
X009838Y001285D01*
X009781Y001287D01*
X009723Y001293D01*
X009667Y001303D01*
X009611Y001316D01*
X009556Y001334D01*
X009503Y001355D01*
X009451Y001379D01*
X009401Y001408D01*
X009352Y001439D01*
X009307Y001474D01*
X009263Y001512D01*
X009223Y001552D01*
X009185Y001596D01*
X009150Y001641D01*
X009119Y001690D01*
X009090Y001740D01*
X009066Y001792D01*
X009045Y001845D01*
X009027Y001900D01*
X009014Y001956D01*
X009004Y002012D01*
X008998Y002070D01*
X008996Y002127D01*
X013076Y002127D02*
X013078Y002184D01*
X013084Y002242D01*
X013094Y002298D01*
X013107Y002354D01*
X013125Y002409D01*
X013146Y002462D01*
X013170Y002514D01*
X013199Y002564D01*
X013230Y002613D01*
X013265Y002658D01*
X013303Y002702D01*
X013343Y002742D01*
X013387Y002780D01*
X013432Y002815D01*
X013481Y002846D01*
X013531Y002875D01*
X013583Y002899D01*
X013636Y002920D01*
X013691Y002938D01*
X013747Y002951D01*
X013803Y002961D01*
X013861Y002967D01*
X013918Y002969D01*
X013975Y002967D01*
X014033Y002961D01*
X014089Y002951D01*
X014145Y002938D01*
X014200Y002920D01*
X014253Y002899D01*
X014305Y002875D01*
X014355Y002846D01*
X014404Y002815D01*
X014449Y002780D01*
X014493Y002742D01*
X014533Y002702D01*
X014571Y002658D01*
X014606Y002613D01*
X014637Y002564D01*
X014666Y002514D01*
X014690Y002462D01*
X014711Y002409D01*
X014729Y002354D01*
X014742Y002298D01*
X014752Y002242D01*
X014758Y002184D01*
X014760Y002127D01*
X014758Y002070D01*
X014752Y002012D01*
X014742Y001956D01*
X014729Y001900D01*
X014711Y001845D01*
X014690Y001792D01*
X014666Y001740D01*
X014637Y001690D01*
X014606Y001641D01*
X014571Y001596D01*
X014533Y001552D01*
X014493Y001512D01*
X014449Y001474D01*
X014404Y001439D01*
X014355Y001408D01*
X014305Y001379D01*
X014253Y001355D01*
X014200Y001334D01*
X014145Y001316D01*
X014089Y001303D01*
X014033Y001293D01*
X013975Y001287D01*
X013918Y001285D01*
X013861Y001287D01*
X013803Y001293D01*
X013747Y001303D01*
X013691Y001316D01*
X013636Y001334D01*
X013583Y001355D01*
X013531Y001379D01*
X013481Y001408D01*
X013432Y001439D01*
X013387Y001474D01*
X013343Y001512D01*
X013303Y001552D01*
X013265Y001596D01*
X013230Y001641D01*
X013199Y001690D01*
X013170Y001740D01*
X013146Y001792D01*
X013125Y001845D01*
X013107Y001900D01*
X013094Y001956D01*
X013084Y002012D01*
X013078Y002070D01*
X013076Y002127D01*
D17*
X012598Y001647D02*
X012598Y002667D01*
X012538Y003867D02*
X011998Y003867D01*
X011818Y004047D01*
X011758Y004047D01*
X011758Y004107D02*
X011518Y003867D01*
X011038Y003867D01*
X010798Y004107D01*
X010798Y005607D01*
X011038Y005847D01*
X011518Y005847D01*
X011758Y005607D01*
X011758Y004107D01*
X012538Y003867D02*
X012778Y004107D01*
X012778Y005607D01*
X012538Y005847D01*
X011998Y005847D01*
X011758Y005607D01*
X012778Y005607D02*
X013018Y005847D01*
X013498Y005847D01*
X013798Y005547D01*
X013798Y004107D01*
X013558Y003867D01*
X013018Y003867D01*
X012898Y003987D01*
X012838Y004047D01*
X012778Y004107D01*
X011158Y002667D02*
X011158Y001647D01*
X009958Y003867D02*
X009478Y003867D01*
X009238Y004107D01*
X009238Y004587D01*
X009478Y004827D01*
X009238Y005067D01*
X009238Y005607D01*
X009478Y005847D01*
X009958Y005847D01*
X010198Y005607D01*
X010198Y005067D01*
X009958Y004827D01*
X010198Y004587D01*
X010198Y004107D01*
X009958Y003867D01*
X008518Y002667D02*
X008518Y001647D01*
X007078Y001647D02*
X007078Y002667D01*
X006718Y003507D02*
X006718Y004287D01*
X004918Y004287D01*
X004918Y003507D01*
X004978Y003507D01*
X005278Y003507D01*
X006718Y003507D01*
X004438Y002667D02*
X004438Y001647D01*
X003298Y001587D02*
X003298Y003267D01*
X002698Y003267D01*
X002698Y001587D01*
X002758Y001587D01*
X002818Y001587D01*
X003298Y001587D01*
X003298Y002307D02*
X002698Y002307D01*
X002758Y002547D02*
X003238Y002547D01*
X003178Y002487D01*
X003058Y002367D01*
X002938Y002367D02*
X002758Y002547D01*
X005878Y006087D02*
X005878Y008607D01*
X006058Y008787D01*
X008638Y008787D01*
X008638Y006087D01*
X005878Y006087D01*
X003418Y009147D02*
X002878Y009147D01*
X002638Y009387D01*
X002638Y009867D01*
X002878Y010107D01*
X002638Y010347D01*
X002638Y010887D01*
X002878Y011127D01*
X002638Y011367D01*
X002638Y011847D01*
X002878Y012087D01*
X002878Y012147D01*
X002638Y012387D01*
X002638Y012867D01*
X002878Y013107D01*
X003418Y013107D01*
X003658Y012867D01*
X003658Y012387D01*
X003418Y012147D01*
X003658Y011907D01*
X003658Y011367D01*
X003418Y011127D01*
X003658Y010887D01*
X003658Y010407D01*
X003418Y010167D01*
X003418Y010107D01*
X003658Y009867D01*
X003658Y009387D01*
X003418Y009147D01*
X004138Y009987D02*
X007378Y009987D01*
X007438Y009927D01*
X007438Y009447D01*
X015238Y009447D01*
X016138Y010347D01*
X016138Y014787D01*
X015298Y015627D01*
X007438Y015627D01*
X007438Y015207D01*
X007378Y015147D01*
X004138Y015147D01*
X004078Y015087D01*
X004078Y012987D01*
X004078Y010227D02*
X004078Y010047D01*
X004138Y009987D01*
X010078Y008907D02*
X010858Y008907D01*
X010858Y007047D01*
X010078Y007047D01*
X010078Y008847D01*
X011698Y008907D02*
X011698Y007047D01*
X012478Y007047D01*
X012478Y008907D01*
X011698Y008907D01*
X013318Y008907D02*
X013318Y008847D01*
X013318Y008787D01*
X013318Y007047D01*
X014098Y007047D01*
X014098Y008907D01*
X013318Y008907D01*
X015298Y008907D02*
X015298Y006327D01*
X015538Y006087D01*
X016078Y006087D01*
X016318Y006327D01*
X016318Y008907D01*
X016258Y008967D01*
X015358Y008967D01*
X015298Y008907D01*
X015238Y002667D02*
X015238Y001647D01*
X013198Y016347D02*
X012718Y016347D01*
X012478Y016587D01*
X012418Y016587D01*
X012178Y016347D01*
X011698Y016347D01*
X011458Y016587D01*
X011218Y016347D01*
X010738Y016347D01*
X010498Y016587D01*
X010438Y016587D01*
X010198Y016347D01*
X009718Y016347D01*
X009478Y016587D01*
X009418Y016587D01*
X009178Y016347D01*
X008698Y016347D01*
X008458Y016587D01*
X008218Y016347D01*
X007678Y016347D01*
X007438Y016587D01*
X007198Y016347D01*
X006718Y016347D01*
X006478Y016587D01*
X006238Y016347D01*
X005698Y016347D01*
X005458Y016587D01*
X005458Y017127D01*
X013198Y016347D02*
X013438Y016587D01*
X013438Y017127D01*
D18*
X013893Y005267D02*
X013893Y005156D01*
X013893Y005211D02*
X014223Y005211D01*
X014223Y005156D02*
X014223Y005267D01*
X014058Y005008D02*
X014113Y004953D01*
X014113Y004788D01*
X014223Y004788D02*
X013893Y004788D01*
X013893Y004953D01*
X013948Y005008D01*
X014058Y005008D01*
X014113Y004640D02*
X014058Y004585D01*
X014058Y004475D01*
X014003Y004420D01*
X013948Y004420D01*
X013893Y004475D01*
X013893Y004585D01*
X013948Y004640D01*
X014113Y004640D02*
X014168Y004640D01*
X014223Y004585D01*
X014223Y004475D01*
X014168Y004420D01*
M02*
