G75*
G70*
%OFA0B0*%
%FSLAX24Y24*%
%IPPOS*%
%LPD*%
%AMOC8*
5,1,8,0,0,1.08239X$1,22.5*
%
%ADD10C,0.0010*%
%ADD11R,0.0740X0.0740*%
%ADD12C,0.0740*%
%ADD13R,0.2000X0.1000*%
%ADD14R,0.1000X0.2000*%
%ADD15C,0.0560*%
%ADD16OC8,0.0740*%
%ADD17R,0.0396X0.0396*%
%ADD18C,0.0240*%
%ADD19C,0.0160*%
%ADD20C,0.0436*%
%ADD21C,0.0100*%
%ADD22C,0.0396*%
%ADD23C,0.1660*%
D10*
X002398Y002257D02*
X002398Y016647D01*
X002398Y016637D02*
X002397Y016710D01*
X002400Y016782D01*
X002406Y016854D01*
X002416Y016926D01*
X002430Y016997D01*
X002448Y017067D01*
X002470Y017136D01*
X002495Y017204D01*
X002524Y017270D01*
X002556Y017335D01*
X002592Y017398D01*
X002632Y017459D01*
X002674Y017517D01*
X002719Y017574D01*
X002768Y017628D01*
X002819Y017679D01*
X002873Y017727D01*
X002930Y017772D01*
X002988Y017815D01*
X003049Y017854D01*
X003112Y017889D01*
X003177Y017922D01*
X003244Y017950D01*
X003312Y017975D01*
X003381Y017997D01*
X003451Y018015D01*
X003522Y018028D01*
X003594Y018038D01*
X003666Y018045D01*
X003738Y018047D01*
X015158Y018047D01*
X015152Y018046D02*
X015225Y018047D01*
X015297Y018044D01*
X015369Y018038D01*
X015441Y018028D01*
X015512Y018014D01*
X015582Y017996D01*
X015651Y017974D01*
X015719Y017949D01*
X015785Y017920D01*
X015850Y017888D01*
X015913Y017852D01*
X015974Y017812D01*
X016032Y017770D01*
X016089Y017725D01*
X016143Y017676D01*
X016194Y017625D01*
X016242Y017571D01*
X016287Y017514D01*
X016330Y017456D01*
X016369Y017395D01*
X016404Y017332D01*
X016437Y017267D01*
X016465Y017200D01*
X016490Y017132D01*
X016512Y017063D01*
X016530Y016993D01*
X016543Y016922D01*
X016553Y016850D01*
X016560Y016778D01*
X016562Y016706D01*
X016568Y016697D02*
X016568Y002337D01*
X016569Y002264D01*
X016566Y002192D01*
X016560Y002120D01*
X016550Y002048D01*
X016536Y001977D01*
X016518Y001907D01*
X016496Y001838D01*
X016471Y001770D01*
X016442Y001704D01*
X016410Y001639D01*
X016374Y001576D01*
X016334Y001515D01*
X016292Y001457D01*
X016247Y001400D01*
X016198Y001346D01*
X016147Y001295D01*
X016093Y001247D01*
X016036Y001202D01*
X015978Y001159D01*
X015917Y001120D01*
X015854Y001085D01*
X015789Y001052D01*
X015722Y001024D01*
X015654Y000999D01*
X015585Y000977D01*
X015515Y000959D01*
X015444Y000946D01*
X015372Y000936D01*
X015300Y000929D01*
X015228Y000927D01*
X003808Y000927D01*
X003808Y000928D02*
X003735Y000926D01*
X003663Y000928D01*
X003592Y000934D01*
X003520Y000944D01*
X003449Y000958D01*
X003379Y000976D01*
X003310Y000997D01*
X003243Y001022D01*
X003176Y001050D01*
X003112Y001083D01*
X003049Y001118D01*
X002988Y001157D01*
X002930Y001199D01*
X002873Y001244D01*
X002819Y001292D01*
X002768Y001343D01*
X002720Y001397D01*
X002675Y001453D01*
X002632Y001511D01*
X002593Y001572D01*
X002557Y001634D01*
X002525Y001699D01*
X002496Y001765D01*
X002471Y001832D01*
X002449Y001901D01*
X002431Y001971D01*
X002417Y002042D01*
X002407Y002113D01*
X002401Y002185D01*
X002398Y002257D01*
D11*
X003158Y012627D03*
X005952Y017137D03*
D12*
X006952Y017037D03*
X007952Y017137D03*
X008952Y017037D03*
X009952Y017137D03*
X010952Y017037D03*
X011952Y017137D03*
X012952Y017037D03*
X003158Y011627D03*
X003158Y010627D03*
X003158Y009627D03*
X009718Y005417D03*
X009718Y004277D03*
D13*
X015538Y003747D03*
X003418Y003807D03*
X003418Y015207D03*
X015538Y015207D03*
D14*
X016018Y012507D03*
D15*
X015778Y008101D03*
X015778Y007313D03*
D16*
X013278Y005347D03*
X013278Y004347D03*
X012278Y004247D03*
X011278Y004347D03*
X011278Y005347D03*
X012278Y005247D03*
D17*
X012058Y006567D03*
X010498Y006387D03*
X008518Y005187D03*
X010498Y004347D03*
X006178Y002547D03*
X005338Y002127D03*
X005878Y005007D03*
X003358Y007167D03*
X006778Y012087D03*
X009238Y011607D03*
X009238Y012687D03*
X006898Y015507D03*
X008998Y015987D03*
X013738Y016287D03*
X013858Y011847D03*
X014518Y008547D03*
X012898Y008547D03*
X015658Y001947D03*
X003418Y014367D03*
D18*
X003418Y015207D01*
X004998Y015867D02*
X005218Y015867D01*
X005278Y016047D01*
X005278Y017607D01*
X005458Y017787D01*
X009718Y017787D01*
X009952Y017553D01*
X009952Y017137D01*
X008998Y015987D02*
X009238Y015747D01*
X009238Y012687D01*
X008098Y014427D02*
X008098Y015807D01*
X007798Y016107D01*
X007018Y016107D01*
X006958Y016167D01*
X006958Y016791D01*
X006952Y017037D01*
X006898Y015507D02*
X007438Y014967D01*
X007438Y014727D01*
X007738Y014427D01*
X007758Y014427D01*
X007698Y008067D01*
X007598Y007967D01*
X008098Y007967D02*
X008098Y007867D01*
X008098Y007567D01*
X007998Y007467D01*
X007198Y007467D01*
X006998Y007667D01*
X006998Y007967D01*
X008098Y007967D02*
X008098Y014427D01*
X013738Y016287D02*
X013738Y011967D01*
X013858Y011847D01*
D19*
X012058Y011187D02*
X012058Y010167D01*
X012898Y009327D01*
X012898Y008547D01*
X014458Y008487D02*
X014518Y008547D01*
X015332Y008547D01*
X015778Y008101D01*
X015992Y008101D01*
X016138Y008247D01*
X016138Y013407D01*
X016018Y012507D01*
X016138Y013407D02*
X015538Y015207D01*
X011638Y011607D02*
X012058Y011187D01*
X011638Y011607D02*
X009238Y011607D01*
X007298Y010567D02*
X007298Y009967D01*
X007298Y010567D02*
X007198Y010667D01*
X003198Y010667D01*
X003158Y010627D01*
X003158Y011627D02*
X006318Y011627D01*
X006778Y012087D01*
X006318Y012587D02*
X006698Y012847D01*
X006318Y012587D02*
X006018Y012587D01*
X005998Y012567D01*
X003158Y012627D01*
X004998Y010367D02*
X004598Y009967D01*
X004598Y009667D01*
X004498Y009567D01*
X003218Y009567D01*
X003158Y009627D01*
X004998Y010367D02*
X006498Y010367D01*
X006598Y010267D01*
X006598Y009967D01*
X006598Y008307D02*
X006598Y007347D01*
X006838Y007107D01*
X009718Y007107D01*
X009838Y006987D01*
X011638Y006987D01*
X012058Y006567D01*
X013278Y005347D02*
X013878Y005347D01*
X014098Y005127D01*
X014098Y006507D01*
X014458Y006867D01*
X014458Y008487D01*
X014098Y005127D02*
X014098Y004047D01*
X014398Y003747D01*
X015118Y003747D01*
X015058Y003687D01*
X015058Y002187D01*
X015298Y001947D01*
X015658Y001947D01*
X015538Y003687D02*
X015538Y003747D01*
X016078Y003747D01*
X015538Y003687D02*
X015478Y003747D01*
X015118Y003747D01*
X011278Y004347D02*
X010738Y003747D01*
X008878Y003747D01*
X008518Y004167D01*
X008518Y005187D01*
X010498Y004347D02*
X010498Y006387D01*
X006178Y002547D02*
X005878Y002847D01*
X005878Y005007D01*
X003418Y003807D02*
X003118Y003807D01*
X002668Y004257D01*
X002638Y004287D01*
X002668Y004257D01*
X002698Y004287D01*
X002668Y004257D02*
X002638Y004227D01*
X002698Y004167D01*
X002698Y004047D01*
X002818Y004167D01*
X002818Y005967D01*
X003358Y006507D01*
X003358Y007167D01*
X003418Y003807D02*
X003418Y002427D01*
X003718Y002127D01*
X005338Y002127D01*
D20*
X006998Y007967D03*
X007598Y007967D03*
X007298Y009967D03*
X006598Y009967D03*
X006698Y012847D03*
X004998Y015867D03*
D21*
X004753Y016114D02*
X004643Y016114D01*
X004629Y016079D02*
X004775Y016432D01*
X004775Y016814D01*
X004629Y017167D01*
X004359Y017437D01*
X004006Y017583D01*
X003624Y017583D01*
X003272Y017437D01*
X003002Y017167D01*
X002873Y016856D01*
X002908Y017011D01*
X003021Y017222D01*
X003186Y017395D01*
X003390Y017519D01*
X003621Y017583D01*
X003740Y017592D01*
X005028Y017592D01*
X005028Y016215D01*
X004929Y016215D01*
X004801Y016162D01*
X004703Y016064D01*
X004650Y015936D01*
X004650Y015798D01*
X004703Y015670D01*
X004801Y015572D01*
X004929Y015519D01*
X005067Y015519D01*
X005195Y015572D01*
X005240Y015617D01*
X005268Y015617D01*
X005276Y015620D01*
X005285Y015621D01*
X005322Y015639D01*
X005360Y015655D01*
X005366Y015662D01*
X005374Y015666D01*
X005401Y015696D01*
X005430Y015725D01*
X005433Y015734D01*
X005439Y015741D01*
X005452Y015780D01*
X005468Y015817D01*
X005468Y015826D01*
X005512Y015960D01*
X005528Y015997D01*
X005528Y016006D01*
X005531Y016015D01*
X006756Y016015D01*
X006746Y016025D02*
X006816Y015955D01*
X006876Y015895D01*
X006968Y015857D01*
X007694Y015857D01*
X007804Y015747D01*
X007258Y015747D01*
X007226Y015715D01*
X007226Y015759D01*
X007150Y015835D01*
X006646Y015835D01*
X006570Y015759D01*
X006570Y015378D01*
X004568Y015326D01*
X004568Y015727D01*
X004558Y015765D01*
X004538Y015799D01*
X004510Y015827D01*
X004476Y015847D01*
X004438Y015857D01*
X004407Y015857D01*
X004629Y016079D01*
X004683Y016015D02*
X004565Y016015D01*
X004650Y015917D02*
X004466Y015917D01*
X004519Y015818D02*
X004650Y015818D01*
X004683Y015720D02*
X004568Y015720D01*
X004568Y015621D02*
X004752Y015621D01*
X004921Y015523D02*
X004568Y015523D01*
X004568Y015424D02*
X006570Y015424D01*
X006570Y015523D02*
X005075Y015523D01*
X005283Y015621D02*
X006570Y015621D01*
X006570Y015720D02*
X005424Y015720D01*
X005468Y015818D02*
X006629Y015818D01*
X006746Y016025D02*
X006708Y016117D01*
X006708Y016597D01*
X006668Y016613D01*
X006528Y016754D01*
X006452Y016938D01*
X006452Y017136D01*
X006528Y017320D01*
X006668Y017461D01*
X006852Y017537D01*
X007051Y017537D01*
X007235Y017461D01*
X007376Y017320D01*
X007452Y017136D01*
X007452Y016938D01*
X007376Y016754D01*
X007235Y016613D01*
X007208Y016602D01*
X007208Y016357D01*
X007848Y016357D01*
X007940Y016319D01*
X008010Y016249D01*
X008310Y015949D01*
X008348Y015857D01*
X008348Y015747D01*
X013488Y015747D01*
X013488Y015959D01*
X013486Y015959D01*
X013410Y016035D01*
X013410Y016539D01*
X013486Y016615D01*
X013990Y016615D01*
X014066Y016539D01*
X014066Y016035D01*
X013990Y015959D01*
X013988Y015959D01*
X013988Y015747D01*
X014393Y015747D01*
X014398Y015765D01*
X014418Y015799D01*
X014446Y015827D01*
X014480Y015847D01*
X014518Y015857D01*
X014562Y015857D01*
X014340Y016079D01*
X014194Y016432D01*
X014194Y016814D01*
X014340Y017167D01*
X014610Y017437D01*
X014963Y017583D01*
X015318Y017583D01*
X015293Y017589D01*
X015173Y017591D01*
X015082Y017587D01*
X015068Y017592D01*
X012204Y017592D01*
X012224Y017582D01*
X012290Y017534D01*
X012348Y017476D01*
X012396Y017410D01*
X012434Y017337D01*
X012459Y017259D01*
X012470Y017187D01*
X012002Y017187D01*
X012002Y017087D01*
X012452Y017087D01*
X012452Y017136D01*
X012528Y017320D01*
X012668Y017461D01*
X012852Y017537D01*
X013051Y017537D01*
X013235Y017461D01*
X013376Y017320D01*
X013452Y017136D01*
X013452Y016938D01*
X013376Y016754D01*
X013235Y016613D01*
X013051Y016537D01*
X012852Y016537D01*
X012668Y016613D01*
X012528Y016754D01*
X012452Y016938D01*
X012452Y016993D01*
X012434Y016937D01*
X012396Y016864D01*
X012348Y016798D01*
X012290Y016740D01*
X012224Y016692D01*
X012151Y016655D01*
X012073Y016630D01*
X012002Y016618D01*
X012002Y017087D01*
X011902Y017087D01*
X011902Y016618D01*
X011830Y016630D01*
X011752Y016655D01*
X011679Y016692D01*
X011613Y016740D01*
X011555Y016798D01*
X011507Y016864D01*
X011470Y016937D01*
X011452Y016993D01*
X011452Y016938D01*
X011376Y016754D01*
X011235Y016613D01*
X011051Y016537D01*
X010852Y016537D01*
X010668Y016613D01*
X010528Y016754D01*
X010452Y016938D01*
X010452Y017136D01*
X010528Y017320D01*
X010668Y017461D01*
X010852Y017537D01*
X011051Y017537D01*
X011235Y017461D01*
X011376Y017320D01*
X011452Y017136D01*
X011452Y017087D01*
X011902Y017087D01*
X011902Y017187D01*
X011433Y017187D01*
X011445Y017259D01*
X011470Y017337D01*
X011507Y017410D01*
X011555Y017476D01*
X011613Y017534D01*
X011679Y017582D01*
X011699Y017592D01*
X010202Y017592D01*
X010202Y017575D01*
X010235Y017561D01*
X010376Y017420D01*
X010452Y017236D01*
X010452Y017038D01*
X010376Y016854D01*
X010235Y016713D01*
X010051Y016637D01*
X009852Y016637D01*
X009668Y016713D01*
X009528Y016854D01*
X009452Y017038D01*
X009452Y017087D01*
X009002Y017087D01*
X009002Y016987D01*
X009470Y016987D01*
X009459Y016915D01*
X009434Y016837D01*
X009396Y016764D01*
X009348Y016698D01*
X009290Y016640D01*
X009224Y016592D01*
X009151Y016555D01*
X009073Y016530D01*
X009002Y016518D01*
X009002Y016987D01*
X008902Y016987D01*
X008902Y016518D01*
X008830Y016530D01*
X008752Y016555D01*
X008679Y016592D01*
X008613Y016640D01*
X008555Y016698D01*
X008507Y016764D01*
X008470Y016837D01*
X008445Y016915D01*
X008433Y016987D01*
X008902Y016987D01*
X008902Y017087D01*
X008452Y017087D01*
X008452Y017038D01*
X008376Y016854D01*
X008235Y016713D01*
X008051Y016637D01*
X007852Y016637D01*
X007668Y016713D01*
X007528Y016854D01*
X007452Y017038D01*
X007452Y017236D01*
X007528Y017420D01*
X007645Y017537D01*
X006452Y017537D01*
X006452Y016713D01*
X006376Y016637D01*
X005528Y016637D01*
X005528Y016056D01*
X005531Y016015D01*
X005528Y016114D02*
X006710Y016114D01*
X006708Y016212D02*
X005528Y016212D01*
X005528Y016311D02*
X006708Y016311D01*
X006708Y016409D02*
X005528Y016409D01*
X005528Y016508D02*
X006708Y016508D01*
X006686Y016606D02*
X005528Y016606D01*
X005028Y016606D02*
X004775Y016606D01*
X004775Y016508D02*
X005028Y016508D01*
X005028Y016409D02*
X004766Y016409D01*
X004725Y016311D02*
X005028Y016311D01*
X004922Y016212D02*
X004684Y016212D01*
X004775Y016705D02*
X005028Y016705D01*
X005028Y016803D02*
X004775Y016803D01*
X004739Y016902D02*
X005028Y016902D01*
X005028Y017000D02*
X004698Y017000D01*
X004657Y017099D02*
X005028Y017099D01*
X005028Y017197D02*
X004599Y017197D01*
X004500Y017296D02*
X005028Y017296D01*
X005028Y017394D02*
X004402Y017394D01*
X004224Y017493D02*
X005028Y017493D01*
X005028Y017591D02*
X003727Y017591D01*
X003406Y017493D02*
X003347Y017493D01*
X003229Y017394D02*
X003184Y017394D01*
X003130Y017296D02*
X003091Y017296D01*
X003032Y017197D02*
X003007Y017197D01*
X002973Y017099D02*
X002955Y017099D01*
X002933Y017000D02*
X002905Y017000D01*
X002892Y016902D02*
X002883Y016902D01*
X003368Y015027D02*
X003468Y015027D01*
X003468Y014557D01*
X003958Y014557D01*
X003958Y011837D01*
X003612Y011837D01*
X003582Y011910D01*
X003441Y012051D01*
X003306Y012107D01*
X003548Y012107D01*
X003586Y012117D01*
X003620Y012137D01*
X003648Y012165D01*
X003668Y012199D01*
X003678Y012237D01*
X003678Y012577D01*
X003208Y012577D01*
X003208Y012677D01*
X003108Y012677D01*
X003108Y013147D01*
X002853Y013147D01*
X002853Y014557D01*
X003368Y014557D01*
X003368Y015027D01*
X003368Y014931D02*
X003468Y014931D01*
X003468Y014833D02*
X003368Y014833D01*
X003368Y014734D02*
X003468Y014734D01*
X003468Y014636D02*
X003368Y014636D01*
X002853Y014537D02*
X003958Y014537D01*
X003958Y014439D02*
X002853Y014439D01*
X002853Y014340D02*
X003958Y014340D01*
X003958Y014242D02*
X002853Y014242D01*
X002853Y014143D02*
X003958Y014143D01*
X003958Y014045D02*
X002853Y014045D01*
X002853Y013946D02*
X003958Y013946D01*
X003958Y013848D02*
X002853Y013848D01*
X002853Y013749D02*
X003958Y013749D01*
X003958Y013651D02*
X002853Y013651D01*
X002853Y013552D02*
X003958Y013552D01*
X003958Y013454D02*
X002853Y013454D01*
X002853Y013355D02*
X003958Y013355D01*
X003958Y013257D02*
X002853Y013257D01*
X002853Y013158D02*
X003958Y013158D01*
X003958Y013060D02*
X003665Y013060D01*
X003668Y013055D02*
X003648Y013089D01*
X003620Y013117D01*
X003586Y013137D01*
X003548Y013147D01*
X003208Y013147D01*
X003208Y012677D01*
X003678Y012677D01*
X003678Y013017D01*
X003668Y013055D01*
X003678Y012961D02*
X003958Y012961D01*
X003958Y012863D02*
X003678Y012863D01*
X003678Y012764D02*
X003958Y012764D01*
X003958Y012666D02*
X003208Y012666D01*
X003208Y012764D02*
X003108Y012764D01*
X003108Y012863D02*
X003208Y012863D01*
X003208Y012961D02*
X003108Y012961D01*
X003108Y013060D02*
X003208Y013060D01*
X003678Y012567D02*
X003958Y012567D01*
X003958Y012469D02*
X003678Y012469D01*
X003678Y012370D02*
X003958Y012370D01*
X003958Y012272D02*
X003678Y012272D01*
X003653Y012173D02*
X003958Y012173D01*
X003958Y012075D02*
X003383Y012075D01*
X003516Y011976D02*
X003958Y011976D01*
X003958Y011878D02*
X003595Y011878D01*
X004855Y009927D02*
X006250Y009927D01*
X006250Y009898D01*
X006303Y009770D01*
X006401Y009672D01*
X006529Y009619D01*
X006667Y009619D01*
X006795Y009672D01*
X006893Y009770D01*
X006923Y009842D01*
X007378Y009387D01*
X007460Y009387D01*
X007450Y008282D01*
X007401Y008262D01*
X007303Y008164D01*
X007298Y008152D01*
X007293Y008164D01*
X007195Y008262D01*
X007067Y008315D01*
X006929Y008315D01*
X006926Y008314D01*
X006926Y008372D01*
X006876Y008493D01*
X006784Y008585D01*
X006663Y008635D01*
X006533Y008635D01*
X006412Y008585D01*
X006320Y008493D01*
X006270Y008372D01*
X006270Y008242D01*
X006320Y008121D01*
X006388Y008053D01*
X006388Y007260D01*
X006628Y007020D01*
X006751Y006897D01*
X009631Y006897D01*
X009751Y006777D01*
X011551Y006777D01*
X011730Y006598D01*
X011730Y006315D01*
X011806Y006239D01*
X012310Y006239D01*
X012386Y006315D01*
X012386Y006819D01*
X012310Y006895D01*
X012027Y006895D01*
X011725Y007197D01*
X009925Y007197D01*
X009805Y007317D01*
X008202Y007317D01*
X008210Y007325D01*
X008310Y007425D01*
X008348Y007517D01*
X008348Y009387D01*
X012541Y009387D01*
X012688Y009240D01*
X012688Y008875D01*
X012646Y008875D01*
X012570Y008799D01*
X012570Y008295D01*
X012646Y008219D01*
X013150Y008219D01*
X013226Y008295D01*
X013226Y008799D01*
X013150Y008875D01*
X013108Y008875D01*
X013108Y009387D01*
X015358Y009387D01*
X016113Y010142D01*
X016113Y008371D01*
X016106Y008381D01*
X016058Y008429D01*
X016003Y008468D01*
X015943Y008499D01*
X015879Y008520D01*
X015812Y008531D01*
X015807Y008531D01*
X015807Y008129D01*
X016113Y008129D01*
X016113Y008072D01*
X015807Y008072D01*
X015807Y008129D01*
X015749Y008129D01*
X015749Y008072D01*
X015348Y008072D01*
X015348Y008067D01*
X015359Y008000D01*
X015380Y007936D01*
X015410Y007875D01*
X015450Y007821D01*
X015498Y007773D01*
X015553Y007733D01*
X015613Y007702D01*
X015631Y007696D01*
X015546Y007661D01*
X015430Y007546D01*
X015368Y007395D01*
X015368Y007232D01*
X015430Y007081D01*
X015546Y006966D01*
X015696Y006903D01*
X015860Y006903D01*
X016010Y006966D01*
X016113Y007068D01*
X016113Y005477D01*
X015968Y005828D01*
X015698Y006098D01*
X015345Y006244D01*
X014963Y006244D01*
X014610Y006098D01*
X014340Y005828D01*
X014194Y005475D01*
X014194Y005093D01*
X014340Y004741D01*
X014610Y004471D01*
X014788Y004397D01*
X014518Y004397D01*
X014480Y004387D01*
X014446Y004367D01*
X014418Y004339D01*
X014398Y004305D01*
X014388Y004267D01*
X014388Y003797D01*
X015488Y003797D01*
X015488Y004384D01*
X015698Y004471D01*
X015968Y004741D01*
X016113Y005091D01*
X016113Y004397D01*
X015588Y004397D01*
X015588Y003797D01*
X015488Y003797D01*
X015488Y003697D01*
X014388Y003697D01*
X014388Y003227D01*
X014398Y003189D01*
X014418Y003155D01*
X014446Y003127D01*
X014480Y003107D01*
X014518Y003097D01*
X015488Y003097D01*
X015488Y003697D01*
X015588Y003697D01*
X015588Y003797D01*
X016113Y003797D01*
X016113Y003697D01*
X015588Y003697D01*
X015588Y003097D01*
X016113Y003097D01*
X016113Y002417D01*
X016109Y002407D01*
X016113Y002327D01*
X016113Y002294D01*
X016111Y002196D01*
X016058Y001963D01*
X015945Y001752D01*
X015780Y001579D01*
X015576Y001455D01*
X015345Y001391D01*
X015226Y001382D01*
X003887Y001382D01*
X003876Y001386D01*
X003797Y001382D01*
X003753Y001382D01*
X003666Y001384D01*
X003434Y001435D01*
X003224Y001547D01*
X003051Y001710D01*
X002927Y001913D01*
X002862Y002142D01*
X002853Y002261D01*
X002853Y003157D01*
X003368Y003157D01*
X003368Y003757D01*
X002853Y003757D01*
X002853Y003857D01*
X003368Y003857D01*
X003368Y003757D01*
X003468Y003757D01*
X003468Y003857D01*
X004568Y003857D01*
X004568Y004327D01*
X004558Y004365D01*
X004538Y004399D01*
X004510Y004427D01*
X004476Y004447D01*
X004438Y004457D01*
X004326Y004457D01*
X004359Y004471D01*
X004629Y004741D01*
X004775Y005093D01*
X004775Y005475D01*
X004629Y005828D01*
X004359Y006098D01*
X004006Y006244D01*
X003624Y006244D01*
X003272Y006098D01*
X003002Y005828D01*
X002855Y005475D01*
X002855Y005093D01*
X003002Y004741D01*
X003272Y004471D01*
X003304Y004457D01*
X002853Y004457D01*
X002853Y009225D01*
X002875Y009203D01*
X003059Y009127D01*
X003257Y009127D01*
X003441Y009203D01*
X003582Y009344D01*
X003587Y009357D01*
X004585Y009357D01*
X004708Y009480D01*
X004808Y009580D01*
X004808Y009880D01*
X004855Y009927D01*
X004836Y009908D02*
X006250Y009908D01*
X006287Y009809D02*
X004808Y009809D01*
X004808Y009711D02*
X006362Y009711D01*
X006834Y009711D02*
X007054Y009711D01*
X006955Y009809D02*
X006909Y009809D01*
X007152Y009612D02*
X004808Y009612D01*
X004742Y009514D02*
X007251Y009514D01*
X007349Y009415D02*
X004643Y009415D01*
X003555Y009317D02*
X007460Y009317D01*
X007459Y009218D02*
X003457Y009218D01*
X002859Y009218D02*
X002853Y009218D01*
X002853Y009120D02*
X007458Y009120D01*
X007457Y009021D02*
X002853Y009021D01*
X002853Y008923D02*
X007456Y008923D01*
X007455Y008824D02*
X002853Y008824D01*
X002853Y008726D02*
X007454Y008726D01*
X007453Y008627D02*
X006682Y008627D01*
X006514Y008627D02*
X002853Y008627D01*
X002853Y008529D02*
X006356Y008529D01*
X006294Y008430D02*
X002853Y008430D01*
X002853Y008332D02*
X006270Y008332D01*
X006273Y008233D02*
X002853Y008233D01*
X002853Y008135D02*
X006314Y008135D01*
X006388Y008036D02*
X002853Y008036D01*
X002853Y007938D02*
X006388Y007938D01*
X006388Y007839D02*
X002853Y007839D01*
X002853Y007741D02*
X006388Y007741D01*
X006388Y007642D02*
X002853Y007642D01*
X002853Y007544D02*
X006388Y007544D01*
X006388Y007445D02*
X002853Y007445D01*
X002853Y007347D02*
X006388Y007347D01*
X006400Y007248D02*
X002853Y007248D01*
X002853Y007150D02*
X006498Y007150D01*
X006597Y007051D02*
X002853Y007051D01*
X002853Y006953D02*
X006695Y006953D01*
X007223Y008233D02*
X007373Y008233D01*
X007450Y008332D02*
X006926Y008332D01*
X006902Y008430D02*
X007451Y008430D01*
X007452Y008529D02*
X006840Y008529D01*
X008348Y008529D02*
X012570Y008529D01*
X012570Y008627D02*
X008348Y008627D01*
X008348Y008726D02*
X012570Y008726D01*
X012595Y008824D02*
X008348Y008824D01*
X008348Y008923D02*
X012688Y008923D01*
X012688Y009021D02*
X008348Y009021D01*
X008348Y009120D02*
X012688Y009120D01*
X012688Y009218D02*
X008348Y009218D01*
X008348Y009317D02*
X012611Y009317D01*
X013108Y009317D02*
X016113Y009317D01*
X016113Y009415D02*
X015387Y009415D01*
X015485Y009514D02*
X016113Y009514D01*
X016113Y009612D02*
X015584Y009612D01*
X015682Y009711D02*
X016113Y009711D01*
X016113Y009809D02*
X015781Y009809D01*
X015879Y009908D02*
X016113Y009908D01*
X016113Y010006D02*
X015978Y010006D01*
X016076Y010105D02*
X016113Y010105D01*
X016113Y009218D02*
X013108Y009218D01*
X013108Y009120D02*
X016113Y009120D01*
X016113Y009021D02*
X013108Y009021D01*
X013108Y008923D02*
X016113Y008923D01*
X016113Y008824D02*
X013201Y008824D01*
X013226Y008726D02*
X016113Y008726D01*
X016113Y008627D02*
X013226Y008627D01*
X013226Y008529D02*
X015733Y008529D01*
X015744Y008531D02*
X015677Y008520D01*
X015613Y008499D01*
X015553Y008468D01*
X015498Y008429D01*
X015450Y008381D01*
X015410Y008326D01*
X015380Y008266D01*
X015359Y008201D01*
X015348Y008135D01*
X008348Y008135D01*
X008348Y008233D02*
X012631Y008233D01*
X012570Y008332D02*
X008348Y008332D01*
X008348Y008430D02*
X012570Y008430D01*
X013165Y008233D02*
X015369Y008233D01*
X015348Y008135D02*
X015348Y008129D01*
X015749Y008129D01*
X015749Y008531D01*
X015744Y008531D01*
X015749Y008529D02*
X015807Y008529D01*
X015823Y008529D02*
X016113Y008529D01*
X016113Y008430D02*
X016056Y008430D01*
X015807Y008430D02*
X015749Y008430D01*
X015749Y008332D02*
X015807Y008332D01*
X015807Y008233D02*
X015749Y008233D01*
X015749Y008135D02*
X015807Y008135D01*
X015500Y008430D02*
X013226Y008430D01*
X013226Y008332D02*
X015415Y008332D01*
X015353Y008036D02*
X008348Y008036D01*
X008348Y007938D02*
X015379Y007938D01*
X015436Y007839D02*
X008348Y007839D01*
X008348Y007741D02*
X015542Y007741D01*
X015527Y007642D02*
X008348Y007642D01*
X008348Y007544D02*
X015430Y007544D01*
X015389Y007445D02*
X008318Y007445D01*
X008232Y007347D02*
X015368Y007347D01*
X015368Y007248D02*
X009873Y007248D01*
X009674Y006854D02*
X002853Y006854D01*
X002853Y006756D02*
X011572Y006756D01*
X011671Y006657D02*
X010808Y006657D01*
X010826Y006639D02*
X010750Y006715D01*
X010246Y006715D01*
X010170Y006639D01*
X010170Y006135D01*
X010246Y006059D01*
X010288Y006059D01*
X010288Y004675D01*
X010246Y004675D01*
X010170Y004599D01*
X010170Y004493D01*
X010142Y004560D01*
X010001Y004701D01*
X009817Y004777D01*
X009619Y004777D01*
X009435Y004701D01*
X009294Y004560D01*
X009218Y004376D01*
X009218Y004178D01*
X009294Y003994D01*
X009331Y003957D01*
X008975Y003957D01*
X008728Y004245D01*
X008728Y004859D01*
X008770Y004859D01*
X008846Y004935D01*
X008846Y005439D01*
X008770Y005515D01*
X008266Y005515D01*
X008190Y005439D01*
X008190Y004935D01*
X008266Y004859D01*
X008308Y004859D01*
X008308Y004175D01*
X008302Y004096D01*
X008308Y004089D01*
X008308Y004080D01*
X008364Y004024D01*
X008668Y003669D01*
X008668Y003660D01*
X008724Y003604D01*
X006088Y003604D01*
X006088Y003702D02*
X008640Y003702D01*
X008724Y003604D02*
X008775Y003544D01*
X008784Y003544D01*
X008791Y003537D01*
X008870Y003537D01*
X008949Y003531D01*
X008956Y003537D01*
X010657Y003537D01*
X010662Y003533D01*
X010744Y003537D01*
X010825Y003537D01*
X010830Y003542D01*
X010836Y003542D01*
X010890Y003602D01*
X010948Y003660D01*
X010948Y003666D01*
X011111Y003847D01*
X011485Y003847D01*
X011778Y004140D01*
X011778Y004554D01*
X011485Y004847D01*
X011071Y004847D01*
X010824Y004601D01*
X010750Y004675D01*
X010708Y004675D01*
X010708Y006059D01*
X010750Y006059D01*
X010826Y006135D01*
X010826Y006639D01*
X010826Y006559D02*
X011730Y006559D01*
X011730Y006460D02*
X010826Y006460D01*
X010826Y006362D02*
X011730Y006362D01*
X011781Y006263D02*
X010826Y006263D01*
X010826Y006165D02*
X014772Y006165D01*
X014579Y006066D02*
X010758Y006066D01*
X010708Y005968D02*
X014480Y005968D01*
X014382Y005869D02*
X010708Y005869D01*
X010708Y005771D02*
X010995Y005771D01*
X011071Y005847D02*
X010778Y005554D01*
X010778Y005140D01*
X011071Y004847D01*
X011485Y004847D01*
X011778Y005140D01*
X011778Y005554D01*
X011485Y005847D01*
X011071Y005847D01*
X010896Y005672D02*
X010708Y005672D01*
X010708Y005574D02*
X010798Y005574D01*
X010778Y005475D02*
X010708Y005475D01*
X010708Y005377D02*
X010778Y005377D01*
X010778Y005278D02*
X010708Y005278D01*
X010708Y005180D02*
X010778Y005180D01*
X010836Y005081D02*
X010708Y005081D01*
X010708Y004983D02*
X010935Y004983D01*
X011033Y004884D02*
X010708Y004884D01*
X010708Y004786D02*
X011010Y004786D01*
X010911Y004687D02*
X010708Y004687D01*
X010288Y004687D02*
X010015Y004687D01*
X010113Y004589D02*
X010170Y004589D01*
X010288Y004786D02*
X008728Y004786D01*
X008728Y004687D02*
X009421Y004687D01*
X009323Y004589D02*
X008728Y004589D01*
X008728Y004490D02*
X009265Y004490D01*
X009224Y004392D02*
X008728Y004392D01*
X008728Y004293D02*
X009218Y004293D01*
X009218Y004195D02*
X008771Y004195D01*
X008855Y004096D02*
X009252Y004096D01*
X009292Y003998D02*
X008939Y003998D01*
X008555Y003801D02*
X006088Y003801D01*
X006088Y003899D02*
X008471Y003899D01*
X008386Y003998D02*
X006088Y003998D01*
X006088Y004096D02*
X008302Y004096D01*
X008308Y004195D02*
X006088Y004195D01*
X006088Y004293D02*
X008308Y004293D01*
X008308Y004392D02*
X006088Y004392D01*
X006088Y004490D02*
X008308Y004490D01*
X008308Y004589D02*
X006088Y004589D01*
X006088Y004679D02*
X006130Y004679D01*
X006206Y004755D01*
X006206Y005259D01*
X006130Y005335D01*
X005626Y005335D01*
X005550Y005259D01*
X005550Y004755D01*
X005626Y004679D01*
X005668Y004679D01*
X005668Y002760D01*
X005850Y002578D01*
X005850Y002295D01*
X005926Y002219D01*
X006430Y002219D01*
X006506Y002295D01*
X006506Y002799D01*
X006430Y002875D01*
X006147Y002875D01*
X006088Y002934D01*
X006088Y004679D01*
X006139Y004687D02*
X008308Y004687D01*
X008308Y004786D02*
X006206Y004786D01*
X006206Y004884D02*
X008240Y004884D01*
X008190Y004983D02*
X006206Y004983D01*
X006206Y005081D02*
X008190Y005081D01*
X008190Y005180D02*
X006206Y005180D01*
X006187Y005278D02*
X008190Y005278D01*
X008190Y005377D02*
X004775Y005377D01*
X004775Y005475D02*
X008226Y005475D01*
X008810Y005475D02*
X009218Y005475D01*
X009218Y005516D02*
X009218Y005318D01*
X009294Y005134D01*
X009435Y004993D01*
X009619Y004917D01*
X009817Y004917D01*
X010001Y004993D01*
X010142Y005134D01*
X010218Y005318D01*
X010218Y005516D01*
X010142Y005700D01*
X010001Y005841D01*
X009817Y005917D01*
X009619Y005917D01*
X009435Y005841D01*
X009294Y005700D01*
X009218Y005516D01*
X009242Y005574D02*
X004734Y005574D01*
X004694Y005672D02*
X009283Y005672D01*
X009365Y005771D02*
X004653Y005771D01*
X004588Y005869D02*
X009504Y005869D01*
X009932Y005869D02*
X010288Y005869D01*
X010288Y005771D02*
X010071Y005771D01*
X010153Y005672D02*
X010288Y005672D01*
X010288Y005574D02*
X010194Y005574D01*
X010218Y005475D02*
X010288Y005475D01*
X010288Y005377D02*
X010218Y005377D01*
X010202Y005278D02*
X010288Y005278D01*
X010288Y005180D02*
X010161Y005180D01*
X010090Y005081D02*
X010288Y005081D01*
X010288Y004983D02*
X009977Y004983D01*
X010288Y004884D02*
X008796Y004884D01*
X008846Y004983D02*
X009459Y004983D01*
X009346Y005081D02*
X008846Y005081D01*
X008846Y005180D02*
X009275Y005180D01*
X009234Y005278D02*
X008846Y005278D01*
X008846Y005377D02*
X009218Y005377D01*
X010288Y005968D02*
X004489Y005968D01*
X004391Y006066D02*
X010238Y006066D01*
X010170Y006165D02*
X004198Y006165D01*
X003433Y006165D02*
X002853Y006165D01*
X002853Y006263D02*
X010170Y006263D01*
X010170Y006362D02*
X002853Y006362D01*
X002853Y006460D02*
X010170Y006460D01*
X010170Y006559D02*
X002853Y006559D01*
X002853Y006657D02*
X010188Y006657D01*
X011561Y005771D02*
X012967Y005771D01*
X013063Y005867D02*
X012758Y005562D01*
X012758Y005474D01*
X012485Y005747D01*
X012071Y005747D01*
X011778Y005454D01*
X011778Y005040D01*
X012071Y004747D01*
X012485Y004747D01*
X012778Y005040D01*
X012778Y005112D01*
X013057Y004833D01*
X012778Y004554D01*
X012778Y004140D01*
X013071Y003847D01*
X013485Y003847D01*
X013778Y004140D01*
X013778Y004554D01*
X013499Y004833D01*
X013798Y005132D01*
X013798Y005297D01*
X013328Y005297D01*
X013328Y005397D01*
X013228Y005397D01*
X013228Y005867D01*
X013063Y005867D01*
X013228Y005771D02*
X013328Y005771D01*
X013328Y005867D02*
X013493Y005867D01*
X013798Y005562D01*
X013798Y005397D01*
X013328Y005397D01*
X013328Y005867D01*
X013328Y005672D02*
X013228Y005672D01*
X013228Y005574D02*
X013328Y005574D01*
X013328Y005475D02*
X013228Y005475D01*
X013328Y005377D02*
X014194Y005377D01*
X014194Y005475D02*
X013798Y005475D01*
X013786Y005574D02*
X014235Y005574D01*
X014276Y005672D02*
X013688Y005672D01*
X013589Y005771D02*
X014316Y005771D01*
X014194Y005278D02*
X013798Y005278D01*
X013798Y005180D02*
X014194Y005180D01*
X014199Y005081D02*
X013748Y005081D01*
X013649Y004983D02*
X014240Y004983D01*
X014281Y004884D02*
X013551Y004884D01*
X013546Y004786D02*
X014321Y004786D01*
X014393Y004687D02*
X013645Y004687D01*
X013743Y004589D02*
X014492Y004589D01*
X014590Y004490D02*
X013778Y004490D01*
X013778Y004392D02*
X014500Y004392D01*
X014395Y004293D02*
X013778Y004293D01*
X013778Y004195D02*
X014388Y004195D01*
X014388Y004096D02*
X013735Y004096D01*
X013636Y003998D02*
X014388Y003998D01*
X014388Y003899D02*
X013538Y003899D01*
X013018Y003899D02*
X012638Y003899D01*
X012539Y003801D02*
X014388Y003801D01*
X014388Y003604D02*
X010892Y003604D01*
X010980Y003702D02*
X015488Y003702D01*
X015488Y003604D02*
X015588Y003604D01*
X015588Y003702D02*
X016113Y003702D01*
X015588Y003801D02*
X015488Y003801D01*
X015488Y003899D02*
X015588Y003899D01*
X015588Y003998D02*
X015488Y003998D01*
X015488Y004096D02*
X015588Y004096D01*
X015588Y004195D02*
X015488Y004195D01*
X015488Y004293D02*
X015588Y004293D01*
X015588Y004392D02*
X015508Y004392D01*
X015718Y004490D02*
X016113Y004490D01*
X016113Y004589D02*
X015816Y004589D01*
X015915Y004687D02*
X016113Y004687D01*
X016113Y004786D02*
X015986Y004786D01*
X016027Y004884D02*
X016113Y004884D01*
X016113Y004983D02*
X016068Y004983D01*
X016109Y005081D02*
X016113Y005081D01*
X016113Y005574D02*
X016073Y005574D01*
X016113Y005672D02*
X016032Y005672D01*
X015991Y005771D02*
X016113Y005771D01*
X016113Y005869D02*
X015926Y005869D01*
X015828Y005968D02*
X016113Y005968D01*
X016113Y006066D02*
X015729Y006066D01*
X015536Y006165D02*
X016113Y006165D01*
X016113Y006263D02*
X012335Y006263D01*
X012386Y006362D02*
X016113Y006362D01*
X016113Y006460D02*
X012386Y006460D01*
X012386Y006559D02*
X016113Y006559D01*
X016113Y006657D02*
X012386Y006657D01*
X012386Y006756D02*
X016113Y006756D01*
X016113Y006854D02*
X012351Y006854D01*
X011969Y006953D02*
X015576Y006953D01*
X015460Y007051D02*
X011870Y007051D01*
X011772Y007150D02*
X015402Y007150D01*
X015980Y006953D02*
X016113Y006953D01*
X016113Y007051D02*
X016096Y007051D01*
X012868Y005672D02*
X012560Y005672D01*
X012658Y005574D02*
X012770Y005574D01*
X012757Y005475D02*
X012758Y005475D01*
X012778Y005081D02*
X012808Y005081D01*
X012721Y004983D02*
X012907Y004983D01*
X013005Y004884D02*
X012623Y004884D01*
X012524Y004786D02*
X013010Y004786D01*
X012911Y004687D02*
X012545Y004687D01*
X012485Y004747D02*
X012071Y004747D01*
X011778Y004454D01*
X011778Y004040D01*
X012071Y003747D01*
X012485Y003747D01*
X012778Y004040D01*
X012778Y004454D01*
X012485Y004747D01*
X012643Y004589D02*
X012813Y004589D01*
X012778Y004490D02*
X012742Y004490D01*
X012778Y004392D02*
X012778Y004392D01*
X012778Y004293D02*
X012778Y004293D01*
X012778Y004195D02*
X012778Y004195D01*
X012778Y004096D02*
X012821Y004096D01*
X012736Y003998D02*
X012920Y003998D01*
X012032Y004786D02*
X011546Y004786D01*
X011523Y004884D02*
X011933Y004884D01*
X011835Y004983D02*
X011621Y004983D01*
X011720Y005081D02*
X011778Y005081D01*
X011778Y005180D02*
X011778Y005180D01*
X011778Y005278D02*
X011778Y005278D01*
X011778Y005377D02*
X011778Y005377D01*
X011778Y005475D02*
X011799Y005475D01*
X011758Y005574D02*
X011898Y005574D01*
X011996Y005672D02*
X011660Y005672D01*
X011645Y004687D02*
X012011Y004687D01*
X011913Y004589D02*
X011743Y004589D01*
X011778Y004490D02*
X011814Y004490D01*
X011778Y004392D02*
X011778Y004392D01*
X011778Y004293D02*
X011778Y004293D01*
X011778Y004195D02*
X011778Y004195D01*
X011778Y004096D02*
X011735Y004096D01*
X011820Y003998D02*
X011636Y003998D01*
X011538Y003899D02*
X011918Y003899D01*
X012017Y003801D02*
X011069Y003801D01*
X014388Y003505D02*
X006088Y003505D01*
X006088Y003407D02*
X014388Y003407D01*
X014388Y003308D02*
X006088Y003308D01*
X006088Y003210D02*
X014393Y003210D01*
X014473Y003111D02*
X006088Y003111D01*
X006088Y003013D02*
X016113Y003013D01*
X016113Y002914D02*
X006107Y002914D01*
X005809Y002619D02*
X002853Y002619D01*
X002853Y002717D02*
X005711Y002717D01*
X005668Y002816D02*
X002853Y002816D01*
X002853Y002914D02*
X005668Y002914D01*
X005668Y003013D02*
X002853Y003013D01*
X002853Y003111D02*
X005668Y003111D01*
X005668Y003210D02*
X004533Y003210D01*
X004538Y003215D02*
X004558Y003249D01*
X004568Y003287D01*
X004568Y003757D01*
X003468Y003757D01*
X003468Y003157D01*
X004438Y003157D01*
X004476Y003167D01*
X004510Y003187D01*
X004538Y003215D01*
X004568Y003308D02*
X005668Y003308D01*
X005668Y003407D02*
X004568Y003407D01*
X004568Y003505D02*
X005668Y003505D01*
X005668Y003604D02*
X004568Y003604D01*
X004568Y003702D02*
X005668Y003702D01*
X005668Y003801D02*
X003468Y003801D01*
X003468Y003702D02*
X003368Y003702D01*
X003368Y003604D02*
X003468Y003604D01*
X003468Y003505D02*
X003368Y003505D01*
X003368Y003407D02*
X003468Y003407D01*
X003468Y003308D02*
X003368Y003308D01*
X003368Y003210D02*
X003468Y003210D01*
X003368Y003801D02*
X002853Y003801D01*
X002853Y004490D02*
X003252Y004490D01*
X003153Y004589D02*
X002853Y004589D01*
X002853Y004687D02*
X003055Y004687D01*
X002983Y004786D02*
X002853Y004786D01*
X002853Y004884D02*
X002942Y004884D01*
X002901Y004983D02*
X002853Y004983D01*
X002853Y005081D02*
X002860Y005081D01*
X002853Y005180D02*
X002855Y005180D01*
X002853Y005278D02*
X002855Y005278D01*
X002853Y005377D02*
X002855Y005377D01*
X002853Y005475D02*
X002855Y005475D01*
X002853Y005574D02*
X002896Y005574D01*
X002937Y005672D02*
X002853Y005672D01*
X002853Y005771D02*
X002978Y005771D01*
X003043Y005869D02*
X002853Y005869D01*
X002853Y005968D02*
X003141Y005968D01*
X003240Y006066D02*
X002853Y006066D01*
X004379Y004490D02*
X005668Y004490D01*
X005668Y004392D02*
X004542Y004392D01*
X004568Y004293D02*
X005668Y004293D01*
X005668Y004195D02*
X004568Y004195D01*
X004568Y004096D02*
X005668Y004096D01*
X005668Y003998D02*
X004568Y003998D01*
X004568Y003899D02*
X005668Y003899D01*
X005668Y004589D02*
X004478Y004589D01*
X004576Y004687D02*
X005617Y004687D01*
X005550Y004786D02*
X004648Y004786D01*
X004689Y004884D02*
X005550Y004884D01*
X005550Y004983D02*
X004730Y004983D01*
X004770Y005081D02*
X005550Y005081D01*
X005550Y005180D02*
X004775Y005180D01*
X004775Y005278D02*
X005569Y005278D01*
X006489Y002816D02*
X016113Y002816D01*
X016113Y002717D02*
X006506Y002717D01*
X006506Y002619D02*
X016113Y002619D01*
X016113Y002520D02*
X006506Y002520D01*
X006506Y002422D02*
X016113Y002422D01*
X016113Y002323D02*
X006506Y002323D01*
X006436Y002225D02*
X016112Y002225D01*
X016095Y002126D02*
X002866Y002126D01*
X002856Y002225D02*
X005920Y002225D01*
X005850Y002323D02*
X002853Y002323D01*
X002853Y002422D02*
X005850Y002422D01*
X005850Y002520D02*
X002853Y002520D01*
X002895Y002028D02*
X016073Y002028D01*
X016040Y001929D02*
X002923Y001929D01*
X002977Y001831D02*
X015987Y001831D01*
X015927Y001732D02*
X003037Y001732D01*
X003131Y001634D02*
X015833Y001634D01*
X015709Y001535D02*
X003245Y001535D01*
X003431Y001437D02*
X015510Y001437D01*
X015488Y003111D02*
X015588Y003111D01*
X015588Y003210D02*
X015488Y003210D01*
X015488Y003308D02*
X015588Y003308D01*
X015588Y003407D02*
X015488Y003407D01*
X015488Y003505D02*
X015588Y003505D01*
X007231Y015720D02*
X007226Y015720D01*
X007167Y015818D02*
X007733Y015818D01*
X008047Y016212D02*
X013410Y016212D01*
X013410Y016114D02*
X008145Y016114D01*
X008244Y016015D02*
X013430Y016015D01*
X013488Y015917D02*
X008323Y015917D01*
X008348Y015818D02*
X013488Y015818D01*
X013410Y016311D02*
X007948Y016311D01*
X007689Y016705D02*
X007326Y016705D01*
X007396Y016803D02*
X007579Y016803D01*
X007508Y016902D02*
X007437Y016902D01*
X007452Y017000D02*
X007467Y017000D01*
X007452Y017099D02*
X007452Y017099D01*
X007452Y017197D02*
X007427Y017197D01*
X007386Y017296D02*
X007476Y017296D01*
X007517Y017394D02*
X007302Y017394D01*
X007159Y017493D02*
X007600Y017493D01*
X006745Y017493D02*
X006452Y017493D01*
X006452Y017394D02*
X006602Y017394D01*
X006518Y017296D02*
X006452Y017296D01*
X006452Y017197D02*
X006477Y017197D01*
X006452Y017099D02*
X006452Y017099D01*
X006452Y017000D02*
X006452Y017000D01*
X006452Y016902D02*
X006467Y016902D01*
X006452Y016803D02*
X006507Y016803D01*
X006443Y016705D02*
X006577Y016705D01*
X007218Y016606D02*
X008660Y016606D01*
X008550Y016705D02*
X008214Y016705D01*
X008325Y016803D02*
X008487Y016803D01*
X008449Y016902D02*
X008395Y016902D01*
X008436Y017000D02*
X008902Y017000D01*
X008902Y016902D02*
X009002Y016902D01*
X009002Y017000D02*
X009467Y017000D01*
X009454Y016902D02*
X009508Y016902D01*
X009579Y016803D02*
X009416Y016803D01*
X009353Y016705D02*
X009689Y016705D01*
X009243Y016606D02*
X010686Y016606D01*
X010577Y016705D02*
X010214Y016705D01*
X010325Y016803D02*
X010507Y016803D01*
X010467Y016902D02*
X010395Y016902D01*
X010436Y017000D02*
X010452Y017000D01*
X010452Y017099D02*
X010452Y017099D01*
X010452Y017197D02*
X010477Y017197D01*
X010518Y017296D02*
X010427Y017296D01*
X010386Y017394D02*
X010602Y017394D01*
X010745Y017493D02*
X010303Y017493D01*
X010202Y017591D02*
X011697Y017591D01*
X011572Y017493D02*
X011159Y017493D01*
X011302Y017394D02*
X011499Y017394D01*
X011456Y017296D02*
X011386Y017296D01*
X011427Y017197D02*
X011435Y017197D01*
X011452Y017099D02*
X011902Y017099D01*
X011902Y017000D02*
X012002Y017000D01*
X012002Y016902D02*
X011902Y016902D01*
X011902Y016803D02*
X012002Y016803D01*
X012002Y016705D02*
X011902Y016705D01*
X011662Y016705D02*
X011326Y016705D01*
X011396Y016803D02*
X011552Y016803D01*
X011488Y016902D02*
X011437Y016902D01*
X011218Y016606D02*
X012686Y016606D01*
X012577Y016705D02*
X012241Y016705D01*
X012352Y016803D02*
X012507Y016803D01*
X012467Y016902D02*
X012415Y016902D01*
X012452Y017099D02*
X012002Y017099D01*
X012404Y017394D02*
X012602Y017394D01*
X012518Y017296D02*
X012447Y017296D01*
X012469Y017197D02*
X012477Y017197D01*
X012332Y017493D02*
X012745Y017493D01*
X013159Y017493D02*
X014745Y017493D01*
X014567Y017394D02*
X013302Y017394D01*
X013386Y017296D02*
X014469Y017296D01*
X014370Y017197D02*
X013427Y017197D01*
X013452Y017099D02*
X014312Y017099D01*
X014271Y017000D02*
X013452Y017000D01*
X013437Y016902D02*
X014230Y016902D01*
X014194Y016803D02*
X013396Y016803D01*
X013326Y016705D02*
X014194Y016705D01*
X014194Y016606D02*
X013999Y016606D01*
X014066Y016508D02*
X014194Y016508D01*
X014203Y016409D02*
X014066Y016409D01*
X014066Y016311D02*
X014244Y016311D01*
X014285Y016212D02*
X014066Y016212D01*
X014066Y016114D02*
X014326Y016114D01*
X014404Y016015D02*
X014046Y016015D01*
X013988Y015917D02*
X014503Y015917D01*
X014437Y015818D02*
X013988Y015818D01*
X013410Y016409D02*
X007208Y016409D01*
X007208Y016508D02*
X013410Y016508D01*
X013477Y016606D02*
X013218Y016606D01*
X012206Y017591D02*
X015071Y017591D01*
X015172Y017591D02*
X015175Y017591D01*
X009002Y016803D02*
X008902Y016803D01*
X008902Y016705D02*
X009002Y016705D01*
X009002Y016606D02*
X008902Y016606D01*
X006855Y015917D02*
X005498Y015917D01*
D22*
X006598Y008307D03*
D23*
X003815Y005284D03*
X015154Y005284D03*
X015154Y016623D03*
X003815Y016623D03*
M02*
